<?xml version="1.0" encoding="UTF-8" standalone="no"?>
<svg
   id="Capa_2"
   viewBox="0 0 693.26 212.77"
   version="1.1"
   sodipodi:docname="ESCUDO USS_Horizontal_color.svg"
   inkscape:version="1.2.1 (9c6d41e410, 2022-07-14)"
   xmlns:inkscape="http://www.inkscape.org/namespaces/inkscape"
   xmlns:sodipodi="http://sodipodi.sourceforge.net/DTD/sodipodi-0.dtd"
   xmlns="http://www.w3.org/2000/svg"
   xmlns:svg="http://www.w3.org/2000/svg">
  <sodipodi:namedview
     id="namedview204"
     pagecolor="#ffffff"
     bordercolor="#000000"
     borderopacity="0.25"
     inkscape:showpageshadow="2"
     inkscape:pageopacity="0.0"
     inkscape:pagecheckerboard="0"
     inkscape:deskcolor="#d1d1d1"
     showgrid="false"
     inkscape:zoom="1.8809682"
     inkscape:cx="346.63"
     inkscape:cy="106.32822"
     inkscape:window-width="2560"
     inkscape:window-height="1043"
     inkscape:window-x="2560"
     inkscape:window-y="360"
     inkscape:window-maximized="1"
     inkscape:current-layer="g200" />
  <defs
     id="defs4">
    <style
       id="style2">.cls-1{fill:#fff;}.cls-2{fill:#cfb47c;}.cls-3{fill:#102b42;}</style>
  </defs>
  <g
     id="Capa_1-2">
    <g
       id="g200">
      <g
         id="g92">
        <path
           class="cls-3"
           d="M106.38,0C47.63,0,0,47.63,0,106.38s47.63,106.38,106.38,106.38,106.38-47.63,106.38-106.38S165.14,0,106.38,0Zm0,207.65c-55.93,0-101.27-45.34-101.27-101.27S50.46,5.12,106.38,5.12s101.27,45.34,101.27,101.27-45.34,101.27-101.27,101.27Z"
           id="path6" />
        <circle
           class="cls-2"
           cx="106.38"
           cy="106.38"
           r="101.27"
           id="circle8" />
        <g
           id="g44">
          <g
             id="g40">
            <g
               id="g18">
              <polygon
                 class="cls-3"
                 points="82.73 150.74 87.19 150.74 84.96 157.69 82.73 150.74"
                 id="polygon10" />
              <polygon
                 class="cls-3"
                 points="87.19 164.64 82.73 164.64 84.96 157.69 87.19 164.64"
                 id="polygon12" />
              <polygon
                 class="cls-3"
                 points="78.01 160.02 78.01 155.56 84.96 157.79 78.01 160.02"
                 id="polygon14" />
              <polygon
                 class="cls-3"
                 points="91.91 155.56 91.91 160.02 84.96 157.79 91.91 155.56"
                 id="polygon16" />
            </g>
            <g
               id="g28">
              <polygon
                 class="cls-3"
                 points="102.77 150.5 107.23 150.5 105 157.45 102.77 150.5"
                 id="polygon20" />
              <polygon
                 class="cls-3"
                 points="107.23 164.39 102.77 164.39 105 157.45 107.23 164.39"
                 id="polygon22" />
              <polygon
                 class="cls-3"
                 points="98.05 159.78 98.05 155.32 105 157.55 98.05 159.78"
                 id="polygon24" />
              <polygon
                 class="cls-3"
                 points="111.95 155.32 111.95 159.78 105 157.55 111.95 155.32"
                 id="polygon26" />
            </g>
            <g
               id="g38">
              <polygon
                 class="cls-3"
                 points="122.68 150.83 127.14 150.83 124.91 157.78 122.68 150.83"
                 id="polygon30" />
              <polygon
                 class="cls-3"
                 points="127.14 164.73 122.68 164.73 124.91 157.78 127.14 164.73"
                 id="polygon32" />
              <polygon
                 class="cls-3"
                 points="117.97 160.12 117.97 155.65 124.91 157.88 117.97 160.12"
                 id="polygon34" />
              <polygon
                 class="cls-3"
                 points="131.86 155.65 131.86 160.12 124.91 157.88 131.86 155.65"
                 id="polygon36" />
            </g>
          </g>
          <path
             class="cls-3"
             d="M110.65,123.02c0,.08,.04,.14,.04,.19,.1,1.68,.14,3.47,.27,5.09,.12,1.33,.29,2.59,.66,3.72,.48,1.45,1.12,2.68,2.04,3.76,.93,1.06,2.01,1.91,3.18,2.66l12.73,8.55c.12,.3-.08,.4-.08,.4h-6.1c-.51,0-.66-.24-.66-.24-.98-.54-3.95-2.97-5.96-4.13,0,0-8.12-5.86-8.32,4.33l-5.74,.06-.02-.11s-.45-10.38-9.24-4.49l-6.43,3.99-1.1,.67h-6.54s-.18-.67,.38-1.07c0,0,9.37-4.78,11.22-6.26,.45-.39,3.53-2.87,3.96-3.3,.79-.79,1.52-1.72,2.16-2.68,.31-.48,.58-1.02,.85-1.56,.27-.54,.54-1.08,.75-1.68,.54-1.47,.95-3.07,1.04-5.02,0-.37,.04-.73,.08-1.14,.02-.39,.02-.93,.06-1.31,.02-.3,.04-.62,.05-.93h0c.04-1.56,.05-3.08,.05-4.57,.01-.78,.03-1.49,.06-2.09,.09-1.49-1.94-2.8-1.94-2.8l-2.99-1.99s-3.37,4.17-7.55,5.98c.13,.17,.34,.3,.55,.37,.28,.1,.58,.15,.85,.27,.6,.25,1.03,.85,1.09,1.5,.01,.15,0,.3-.04,.45-.15,.52-.78,.81-1.3,.68-.02,0-.04-.01-.06-.02-1.17-.57-1.01-1.38-1.12-2.14-.05-.34-.17-.69-.43-.91-.97,.37-1.98,.61-3,.62-.5,0-.99,0-1.45-.02-.02,.1-.04,.27,.03,.45,.2,.55,.93,.47,1.79,1,.91,.57,.73,1.07,1.47,1.28,.53,.15,.82-.04,1.46,.25,.2,.09,.47,.23,.68,.51,.21,.29,.27,.68,.24,1.04-.04,.45-.22,.9-.59,1.16-.21,.15-.48,.23-.74,.25-.58,.04-1.18-.19-1.54-.64-.36-.45-.46-1.11-.2-1.63,.04-.07,.08-.13,.09-.21,.04-.18-.07-.35-.17-.5-.61-.86-1.46-1.63-2.5-1.79-.07,.3-.07,.61-.01,.91,.02,.11,.05,.21,.11,.3,.12,.17,.32,.24,.5,.32,.47,.21,.91,.58,1.03,1.08,.11,.46-.07,.95-.31,1.35-.11,.18-.21,.29-.41,.36-.11,.04-.38,.12-.5,.12-.36,0-.61-.02-.95-.13-.06-.02-.59-.22-.81-.66-.27-.54,.07-1.19,.12-1.3,.27-.51,.72-.68,.84-1.35,0-.04,.02-.06,.02-.1,.01-.64-.05-1.28-.29-1.88-.04-.09-.08-.17-.1-.26-.41-.02-.8-.06-1.14-.1-.2,.34-.59,.62-.89,.82-.41,.26-.83,.5-1.27,.7,.15,.59-.11,1.27-.62,1.6s-1.23,.32-1.72-.05c-.24-.18-.42-.42-.55-.68-.14-.27-.23-.58-.18-.87,.09-.51,.58-.88,1.09-.97,.51-.08,1.03,.07,1.51,.28,.11,.05,.22,.1,.34,.11,.11,0,.21-.02,.31-.06,.44-.13,.91-.29,1.26-.6,.11-.1,.18-.22,.24-.33-.43-.05-.79-.1-1.04-.15-.12,0-.24,.01-.35,.04-.23,.04-.45,.13-.67,.2-.48,.16-1.02,.23-1.48,0-.32-.16-.57-.48-.64-.83-.07-.36,.02-.74,.25-1.02,.26-.31,.73-.34,1.09-.21,.3,.1,.55,.3,.79,.5,.14,.12,.29,.29,.45,.41,.05,.04,.1,.07,.15,.1,.17,.09,.4,.1,.59,.16,.04,.01,.12,.04,.21,.07,.34,.06,.77,.12,1.27,.17-.09-.22-.16-.44-.2-.51-.05-.08-.1-.17-.18-.22-.16-.11-.37-.06-.56-.02-.58,.09-1.21-.07-1.63-.49-.42-.42-.58-1.09-.34-1.62,.24-.53,.9-.87,1.46-.68,.29,.1,.53,.31,.71,.56,.26,.36,.41,.79,.43,1.24,0,.19,0,.38,.05,.56,.14,.48,.44,.67,.88,1.18,.02,.02,.04,.03,.04,.04,.92,.05,2,.03,3.12-.15-.13-.27-.22-.58-.27-.67-.05-.08-.1-.17-.18-.22-.16-.11-.37-.05-.56-.02-.58,.09-1.21-.07-1.63-.48-.42-.42-.58-1.09-.34-1.62,.24-.54,.9-.87,1.46-.68,.29,.1,.53,.31,.72,.56,.26,.36,.41,.79,.43,1.24,0,.19,0,.38,.05,.57l.94,1.22c.07-.02,.17-.04,.28-.06,.11-.03,.22-.05,.33-.08,1.03-.28,1.92-.83,2.7-1.49,.02-.12,.03-.23-.05-.32-.07-.08-.18-.11-.29-.12-.36-.05-.71-.09-1.03-.27-.2-.11-.41-.28-.57-.45-.49-.5-.95-1.03-1.39-1.59-.21,.14-.47,.18-.72,.14-.25-.04-.48-.14-.71-.25-.26-.13-.51-.28-.68-.51-.22-.29-.27-.68-.24-1.04,.04-.45,.22-.9,.59-1.16,.22-.15,.48-.23,.75-.25,.58-.04,1.18,.19,1.54,.64,.36,.45,.46,1.11,.2,1.63-.04,.07-.08,.13-.09,.21-.04,.18,.07,.35,.17,.5,.61,.86,1.46,1.63,2.5,1.79,.07-.3,.07-.61,.01-.91-.02-.11-.05-.21-.11-.3-.11-.16-.31-.24-.5-.32-.47-.21-.91-.58-1.03-1.08-.11-.45-.02-.98,.31-1.35,.52-.59,1.31-.48,1.49-.45,.16,.02,.76,.11,1.09,.61,.19,.29,.21,.58,.22,.73,.05,1.01-.86,1.87-.98,1.95-.04,.03-.09,.06-.11,.11-.01,.03-.02,.07-.02,.1,0,.51,.03,1.01,.17,1.5,2.13-2.11,3.18-4.99,3.18-4.99,0,0-1.77-1.08-8.87-2.62-7.1-1.54-10.97-7.75-10.97-7.75-.48-.81-1.14-1.72-2.01-2.63-2.01-2.1-4.22-3.16-5.65-3.69,.01,.42,.07,.74,.12,.95,0,0,.31,1.36,1.75,2.65,.02,.02,.08,.07,.17,.08,.06,0,.12-.02,.17-.04,.43-.17,.93-.15,1.35,.04,.65,.3,1.29,1.3,1.07,2.03-.09,.29-.32,.52-.58,.67-.46,.27-1.07,.33-1.53,.08-.84-.46-.81-1.46-.77-2.28,0-.05,0-.11-.02-.15-.02-.03-.05-.05-.08-.07-.21-.14-.69-.56-.94-.56-.27,0-.49,.45-.58,.65-.17,.37-.29,.82-.08,1.16,.08,.14,.21,.25,.33,.36,.48,.48,.78,1.13,.84,1.81,.04,.47-.07,.99-.43,1.3-.24,.2-.55,.29-.86,.31-.25,.01-1.01,.04-1.56-.55-.5-.53-.68-1.39-.37-1.94,.32-.58,1.04-.59,1.23-1.24,.07-.23,.04-.45,0-.58-.83,.21-1.81,.56-2.62,.83-.24,.08-.49,.17-.66,.35-.5,.54-.05,1.41-.18,2.13-.15,.78-1.04,1.27-1.83,1.13-.78-.14-1.41-.76-1.75-1.48-.23-.49-.34-1.11-.13-1.63,.26-.64,.91-.91,1.55-1.05,.47-.1,.98-.08,1.4,.15,.06,.03,.11,.07,.18,.07,.05,0,.1-.01,.15-.03,.48-.16,.95-.33,1.44-.48,.78-.24,1.61-.43,2.37-.73,.51-.2,.82-.98,.79-1.62-.02-.4-.2-.54-.39-1.27-.12-.47-.22-.86-.24-1.12-.5-.02-.99-.02-1.59,.03-.38,.03-.73,.07-1.07,.13-.05,.06-.42,.5-.59,.85-.05,.11-.07,.21-.1,.33-.02,.1,.01,.17,.02,.27,.01,.24,.01,.47-.04,.7-.1,.49-.35,.93-.61,1.35-.19,.31-.45,.58-.78,.72-.63,.26-1.42-.06-1.74-.66-.39-.72-.08-1.5,.25-1.9,.35-.43,.84-.57,.9-.59,.75-.21,1.43,.18,1.64-.13,.01-.02,.05-.12,.12-.34,.04-.14,.09-.29,.14-.45-.61,.01-1.56,.11-2.62,.57-.75,.33-1.32,.73-1.71,1.06-.05,.05-.11,.11-.15,.18-.04,.06-.08,.12-.08,.19,0,.08,.04,.15,.07,.22,.18,.42-.05,.89-.28,1.28-.48,.83-1.38,1.26-2.33,.87-.45-.19-.81-.59-.94-1.06-.15-.52,.18-1.08,.6-1.38,.34-.25,.75-.38,1.16-.5,.24-.07,.54-.1,.8-.18,.39-.12,.75-.43,1.12-.62-.07-1.34-.46-1.83-.81-2.03-.27-.15-.5-.12-.89-.4-.19-.14-.59-.41-.74-.91-.16-.51-.04-1.1,.33-1.52,.43-.5,1.19-.75,1.83-.46,.63,.28,.82,.94,.86,1.09,.02,.08,.16,.69-.16,1.23-.2,.33-.4,.33-.51,.59-.1,.24-.1,.62,.3,1.22,.88-.58,1.32-1.64,1.5-2.67,.03-.18,.05-.38-.06-.52-.05-.06-.11-.1-.17-.15-.46-.35-.65-1-.51-1.56,.14-.56,.59-1.02,1.13-1.22,.25-.09,.52-.14,.78-.09,.44,.08,.8,.42,1.02,.81,.18,.31,.3,.68,.22,1.04-.07,.34-.25,.57-.4,.75-.48,.56-.81,.48-1.22,.89-.06,.06-.06,.07-.67,1.61,0,0-.42,1.05-.96,1.46-.01,0-.02,.01-.03,.02-.19,.14-.28,.22-.31,.3,0,.03-.04,.14,.09,.3,0,0,.01,0,.02,0,.12-.07,.26-.12,.39-.18,.02-.01,.05-.02,.08-.03,.04-.02,.08-.04,.12-.06,.04-.02,.08-.04,.11-.04,1.5-.63,3.41-1.22,5.53-1.37,.04-.07,.21-.39,.1-.77-.09-.31-.31-.48-.41-.55-.17-.13-.31-.15-.41-.21-.41-.27-.74-.65-.86-1.13-.15-.58,.07-1.26,.56-1.6,.49-.34,1.25-.29,1.64,.17,.21,.24,.3,.56,.33,.87,.04,.43,.05,.88-.06,1.31-.05,.21-.14,.39-.25,.57-.05,.08-.1,.12-.12,.21-.02,.09-.05,.17-.05,.3,0,.32,.1,.71,.13,.8,.07,0,.15,0,.22,0,1.86-.02,3.9,.7,5.78,1.65,0,0-.07-2.01-1.18-3.27-.61-.22-1.2-.52-1.68-.95-.56-.51-.98-1.22-1-1.98-.01-.5,.13-1.01-.02-1.48-.05-.15-.12-.29-.12-.45,0-.36,.36-.59,.53-.9,.24-.43,.12-.98,.3-1.43,.19-.48,.67-.76,1.03-1.12,.25-.26,.55-.6,.89-.48,.2,.07,.31,.27,.48,.38,.3,.2,.73,.11,1.02,.34,.27,.21,.29,.62,.5,.89,.21,.26,.59,.37,.71,.68,.08,.21,.01,.45,.07,.67,.08,.29,.36,.48,.46,.76,.1,.27,.02,.58,.07,.87,.05,.38,.31,.72,.28,1.1-.04,.45-.47,.77-.61,1.21-.05,.14-.06,.3-.1,.45-.08,.32-.29,.59-.48,.85h0c-.05,1.4,.13,4.41,2.22,7.75,2.85,4.56,10.93,7.31,16.1,7.49,1.07-2.48,.95-7.34-1.52-11.43-.18,.1-.37,.2-.53,.33-.5,.37-.71,.97-.9,1.54-.19,.59-.11,1.22-.01,1.82,.01,.07,.02,.14,.07,.2,.04,.05,.11,.08,.17,.1,.48,.2,.87,.61,1.06,1.09,.29,.75,.01,2.07-.74,2.49-.3,.17-.67,.17-1,.09-.59-.14-1.12-.57-1.3-1.15-.31-1.03,.49-1.82,1.18-2.45,.04-.04,.09-.08,.1-.14,0-.04,0-.08,0-.12-.06-.28-.11-.99-.31-1.2-.21-.21-.75-.02-.99,.07-.42,.17-.87,.43-.98,.88-.04,.18-.02,.37-.02,.55,.01,.76-.26,1.53-.75,2.11-.34,.41-.84,.74-1.38,.71-.35-.02-.67-.2-.93-.43-.49-.42-.81-1.03-.83-1.67-.02-.64,.3-1.3,.85-1.63,.69-.42,1.56-.28,2.36-.13,.14-.36,.1-.27,.24-.64-.83-.48-1.68-.94-2.55-1.36-.26-.12-.53-.25-.81-.23-.83,.04-1.15,1.1-1.83,1.57-.73,.51-1.84,.2-2.36-.52-.52-.72-.54-1.73-.24-2.57,.2-.58,.6-1.16,1.18-1.41,.72-.31,1.45-.02,2.08,.37,.46,.28,.85,.71,1,1.22,.02,.07,.04,.14,.09,.2,.04,.04,.09,.07,.14,.1,.51,.26,1.03,.48,1.54,.74,.82,.42,1.63,.92,2.48,1.28,.57,.24,1.29,.1,1.7-.37,.25-.28,.76-1.32,1-1.62,.17-.2,.5-.46,.75-.54-.33-.47-.69-.91-1.07-1.31-.9-.18-1.43,0-1.74,.2-.2,.13-.21,.15-.51,.41-.39,.34-.87,.56-1.38,.63-.36,.05-.73,.02-1.05-.15-.6-.32-.85-1.13-.59-1.76,.26-.63,.95-1.03,1.63-1.02,.68,.02,1.32,.41,1.71,.97,.09,.13,.22,.4,.47,.45,.13,.03,.26-.02,.49-.09,.19-.06,.35-.13,.45-.19-2.92-2.79-6.62-3.74-7.27-3.89-.21-.05-.4-.05-.4-.05-.29,.03-.48,.21-.64,.34,0,0-.36,.28-.98,.48-.72,.23-1.69-.06-2.28-.7-.16-.18-.41-.54-.52-1.04-.12-.59,.03-1.22,.42-1.69,.42-.51,1.21-.56,1.81-.35,.42,.15,.95,.42,1.31,.82,.15,.17,.46,.56,1.01,.78,.02,0,.03,.01,.05,.02,.31,.09,1.29,.41,2.66,1.08,.05-.56-.03-1.12-.16-1.66,0-.04-.02-.07-.04-.1-.03-.04-.08-.06-.13-.08-.71-.28-1.25-.93-1.39-1.68-.03-.14-.07-.34,0-.6,.16-.67,.9-1.19,1.64-1.18,.11,0,.51,.01,.89,.29,.38,.28,.62,.77,.61,1.25,0,.51-.36,.97-.77,1.28-.16,.12-.34,.24-.41,.42-.04,.1-.05,.21-.04,.32,0,.3,.08,.61,.21,.88,.98-.38,1.63-1.32,2.03-2.3,.07-.17,.13-.36,.05-.53-.03-.07-.09-.12-.14-.18-.37-.44-.42-1.11-.17-1.63,.25-.52,.79-.88,1.36-.96,.26-.04,.54-.03,.78,.08,.41,.17,.69,.58,.83,1,.11,.34,.15,.73,0,1.06-.15,.34-.38,.53-.55,.65-.52,.39-1.1,.43-1.37,.43-.29,.61-.64,1.09-.99,1.66-.13,.21-.39,.52-.58,.69-.31,.28-.46,.41-.82,.55-.1,.04-.21,.09-.26,.18-.08,.15,.04,.32,.09,.49,.99,.52,2.12,1.21,3.33,2.11,.12-.06,.33-.18,.5-.4,.06-.07,.19-.23,.25-.45,.1-.31,.02-.59,0-.7-.04-.17-.37-1.31-.05-1.94,.3-.6,.97-1.01,1.64-.95,.67,.07,1.26,.67,1.26,1.33,0,.35-.15,.69-.36,.98-.3,.41-.71,.73-1.18,.91-.38,.14-.4,.13-.6,.25-.3,.19-.65,.57-.84,1.43,.78,.58,1.64,1.3,2.49,2.19,.39,.4,.73,.81,1.05,1.19,.05-.09,.13-.21,.18-.38,.04-.11,.08-.23,.07-.35-.01-.25-.22-.42-.28-.49-.36-.37-.73-1.16-.65-1.75,.09-.64,.57-1.22,1.19-1.37,.63-.15,1.35,.21,1.56,.82,.11,.32,.08,.68-.02,1-.14,.46-.42,.89-.8,1.19-.29,.24-.32,.25-.46,.42-.25,.29-.43,.75-.38,1.47,.65,1.02,1.36,2.31,1.98,3.87,.58,1.48,.94,2.83,1.16,3.97,.69-.04,1.29-.66,1.35-1.38,.07-.92,0-1.87,0-2.8,0-.58,.04-1.13,.05-1.71,0-.06,0-.12-.02-.17-.03-.07-.08-.12-.14-.17-.39-.37-.58-.92-.62-1.46-.06-.74,.02-1.53,.63-2.02,.49-.4,1.19-.48,1.8-.39,.89,.13,1.77,.6,2.17,1.4,.4,.8,.17,1.93-.63,2.34-.73,.38-1.82,.18-2.24,.89-.14,.25-.16,.54-.17,.83-.03,.96-.02,1.92,.03,2.89,.38,.05,.29,.04,.67,.08,.23-.77,.52-1.61,1.21-2.03,.55-.33,1.27-.31,1.84,0,.56,.31,.95,.89,1.1,1.51,.08,.34,.09,.7-.05,1.02-.21,.49-.74,.78-1.26,.89-.75,.17-1.55,.05-2.22-.31-.16-.09-.32-.19-.5-.24-.44-.11-.89,.17-1.23,.46-.19,.17-.6,.56-.52,.84,.08,.27,.7,.65,.92,.83,.03,.02,.06,.05,.1,.06,.06,.02,.12,0,.17-.03,.87-.32,1.94-.67,2.71,.08,.43,.42,.56,1.09,.42,1.68-.08,.33-.25,.66-.54,.84-.72,.47-2.01,.11-2.55-.49-.34-.39-.52-.92-.48-1.44,0-.07,.01-.14-.01-.2-.03-.07-.08-.11-.14-.15-.5-.37-1.04-.75-1.68-.84h0c.24,1.24,.38,2.33,.46,3.13,3.87,.88,7.24,2.57,7.24,2.57,0,0,1.36-16.92,1.14-21.16,0,0-2.95-3.64-4.83-4.96-1.88-1.33-5.09-3.79-5.09-3.79,0,0-4.95,.45-9.38-1.88-.09,.07-.18,.12-.27,.18-.08,.05-.17,.1-.25,.16-.07,.06-.12,.15-.17,.22-.05,.07-.04,.13-.06,.21-.05,.18-.12,.36-.22,.52-.06,.09-.34,.64-.83,.86-.65,.29-1.72,.02-1.92-.65-.15-.52,.27-1.12,.71-1.37,.39-.22,.85-.24,1.28-.14,.14,.03,.26,.1,.4,.14,.05,.02,.41,.17,.44,.15,.04-.03,.1-.12,.18-.22,.07-.09,.15-.2,.24-.31-1.06-.61-2.07-1.38-2.97-2.38-.13,.13-.29,.22-.45,.32-.1,.06-.2,.12-.3,.2-.09,.07-.14,.18-.2,.27-.06,.08-.05,.15-.07,.25-.07,.22-.14,.43-.27,.63-.26,.41-.62,.73-1,1.03-.27,.21-.6,.38-.94,.39-.66,.03-1.27-.53-1.37-1.18-.1-.65,.28-1.33,.86-1.65,.47-.27,1.02-.29,1.54-.17,.17,.04,.31,.12,.48,.17,.06,.02,.5,.21,.53,.18,.05-.04,.12-.14,.22-.27,.15-.2,.35-.47,.54-.67-1.78-2.08-2.76-3.81-3.31-5.14-.06,.02-.11,.05-.14,.1-.05,.08-.04,.19-.02,.29,.06,.33,.09,.75,.02,1.09-.04,.21-.08,.33-.18,.52-.3,.57-.63,1.13-.98,1.67,.18,.14,.29,.36,.33,.59,.05,.31,.02,.55-.02,.69-.03,.12-.27,1.01-1.09,1.25-.08,.02-.69,.19-1.19-.18-.2-.14-.34-.35-.43-.58-.2-.49-.18-1.08,.11-1.53,.29-.45,.84-.72,1.36-.64,.07,.01,.14,.03,.21,.02,.17-.02,.29-.16,.39-.29,.58-.78,1-1.74,.84-2.7-.28,.03-.55,.12-.8,.25-.09,.05-.17,.11-.23,.18-.11,.15-.12,.34-.14,.53-.05,.47-.24,.96-.64,1.21-.37,.23-.87,.28-1.27,.12-.38-.15-.58-.44-.65-.56-.24-.39-.2-.77-.19-.96,0-.33,.11-.67,.34-.9,.13-.13,.3-.22,.47-.28,.65-.24,1.43-.13,1.99,.29,.04,.03,.08,.06,.12,.07,.03,0,.06,0,.1-.02,.54-.17,1.05-.4,1.5-.75-.24-.68-.36-1.22-.41-1.63-.13-.49-.03-.96-.23-1.45-.12-.29-.31-.58-.42-.85-.19-.45-.37-.91-.4-1.4-.04-.59,.21-1.3,.79-1.54,.52-.23,1.14-.2,1.64,.07,.36,.19,.63,.45,.81,.74,.53,.87,.18,1.81,.12,1.98-.05,.13-.17,.46-.47,.78-.3,.33-.51,.35-.7,.55-.33,.36-.29,.96-.14,1.62,.38,1.77,1.46,3.99,1.76,4.58,.09-.17,.21-.36,.3-.53,.07-.13,.13-.23,.15-.29,.01-.04-.31-.34-.35-.39-.11-.12-.23-.22-.33-.35-.3-.4-.48-.89-.43-1.39,.06-.62,.5-1.19,1.1-1.35,.6-.16,1.31,.16,1.52,.74,.11,.3,.1,.65,.01,.96-.12,.43-.26,.87-.51,1.24-.12,.18-.28,.33-.44,.46-.07,.06-.14,.08-.19,.16-.08,.12-.14,.22-.15,.27-.23,.62-.24,.57-.25,.66,0,.09-.02,.37,.57,.99,.27,.28,.69,.66,1.31,1.02,.52-.38,.92-.75,1.2-1.04,.99-1,1.05-1.49,1.05-1.71,0-.76-.46-.92-1-2.02-.21-.42-.38-.83-.58-1.25-.02-.04-.04-.08-.07-.12-.04-.04-.1-.05-.16-.07-.42-.13-.75-.45-.97-.83-.31-.52-.53-1.11-.27-1.68,.21-.46,.69-.78,1.15-.93,.69-.23,1.49-.2,2.07,.23,.58,.43,.81,1.33,.39,1.91-.39,.54-1.25,.79-1.29,1.45-.01,.23,.08,.45,.18,.66,.33,.7,.68,1.4,1.06,2.07,.29-.1,.22-.08,.52-.18-.11-.64-.21-1.35,.14-1.9,.27-.44,.81-.69,1.32-.66,.52,.02,1.01,.3,1.34,.69,.18,.22,.32,.48,.33,.76,.02,.43-.26,.83-.59,1.1-.48,.39-1.1,.59-1.71,.57-.15,0-.3-.02-.45,.01-.36,.08-.58,.44-.72,.78-.08,.19-.23,.62-.07,.79,.16,.17,.74,.22,.96,.27,.03,0,.06,.01,.1,0,.05-.01,.08-.05,.11-.08,.51-.54,1.16-1.18,1.99-.92,.46,.15,.8,.59,.91,1.06,.06,.27,.05,.56-.08,.8-.35,.6-1.41,.8-2.01,.56-.39-.16-.71-.48-.87-.87-.02-.05-.04-.1-.08-.14-.05-.05-.12-.05-.16-.06-1.46-.13-2.06,.2-2.06,.2-.6,.33-.91,.82-1.04,1.06,.36,.23,.74,.45,1.15,.65,3.79,1.91,6.12,1.81,7.35,1.44,0,0-3.02-4.59-1.35-8.67,0,0,.5-1.11,.72-.12,.22,.99-.21,2.93,.1,3.91,.31,.98,1.08,3.47,3.54,5.09,2.47,1.62,3.08,2.64,7.01,4.5,.03,.01,.07,.03,.1,.05,.23-.75,.65-2.81-.7-5.35-.01-.02-.09-.15-.24-.42-.44-.75-.53-.89-.69-.91-.14-.02-.26,.06-.45,.18,0,0-.3,.2-.38,.44,0,.01,0,.02,0,.02,0,.01,0,.02-.01,.05-.04,.14-.09,.28-.17,.41-.17,.26-.4,.47-.65,.67-.18,.14-.39,.24-.61,.26-.43,.02-.82-.34-.89-.76-.06-.42,.18-.86,.55-1.07,.3-.17,.66-.19,1-.11,.06,.01,.15,.1,.31,.11,.14,.01,.26-.03,.31-.05,.11-.05,.17-.11,.27-.2,.08-.08,.18-.19,.28-.34-.56-.47-1.08-.77-1.5-.98-.05-.02-.16-.08-.33-.15-.62-.27-1.21-.44-1.66-.54-.02,.01-.04,.03-.06,.04-.24,.16-.5,.33-.8,.34-.21,0-.41-.08-.59-.18-.24-.13-.46-.3-.6-.54-.14-.24-.17-.55-.03-.78,.07-.11,.17-.2,.29-.27,.35-.19,.8-.15,1.13,.06,.16,.1,.51,.42,.7,.72,.21,.06,.45,.14,.7,.24,0-.02,.01-.04,.02-.07,.08-.34,.03-.62-.01-.81-.18-.82-.27-1.22-.39-1.38-.39-.49-.81-.29-1.1-.74-.24-.37-.24-.96,.07-1.35,.31-.4,.82-.43,.95-.44,.13,0,.56-.03,.91,.27,.31,.26,.45,.67,.42,1.02-.04,.54-.45,.57-.58,1.16-.09,.39,.08,.43,.13,1.27,.02,.26,.05,.9-.07,1.2,.05,.02,.1,.04,.14,.06,.34,.14,.71,.31,1.08,.5,.09-.12,.18-.27,.26-.52,.09-.3,.21-.69,.15-1.15-.09-.64-.43-.66-.43-1.16,0-.38,.21-.84,.6-1.02,.31-.14,.61-.05,.74-.02,.11,.03,.59,.17,.78,.64,.12,.29,.11,.65-.06,.92-.26,.42-.67,.25-1.01,.67-.23,.29-.08,.42-.34,1.09-.02,.04-.18,.45-.38,.73,.04,.02,.08,.04,.11,.06,.29,.16,.58,.34,.87,.55,.1,.07,.19,.14,.29,.2t0,0s.09-.02,.16-.07c.06-.04,.11-.11,.23-.23,.07-.08,.09-.13,.12-.18,.04-.06,.02-.1,.04-.17,.04-.15,.08-.29,.16-.42,.16-.27,.39-.5,.62-.7,.17-.15,.38-.26,.61-.29,.43-.04,.85,.31,.93,.73,.08,.42-.15,.88-.51,1.1-.3,.19-.66,.22-1,.15-.11-.02-.21-.07-.32-.1-.04-.01-.26-.07-.28-.05-.03,.03-.17,.18-.22,.26-.06,.09-.12,.17-.17,.23,.49,.39,.96,.84,1.38,1.35,.05,.06,.1,.12,.15,.19,.15,.19,.29,.39,.43,.59,1.42,2.15,1.69,4.59,1.66,6.31,.27,.18,.51,.34,.72,.5,0,0,.83-16.23,.87-17.22,.04-.99,.31-2.86,0-3.47-.23-.46-.91-2.11-2.79-3.65-.09,.19-.14,.29-.23,.48-.4,.92,.04,2.15,.6,2.9,.04,.05,.07,.09,.12,.11,.05,.02,.11,.01,.16,0,.42-.03,.85,.11,1.16,.39,.49,.43,.78,1.47,.4,2.05-.15,.23-.41,.37-.68,.43-.47,.12-1.01,.01-1.35-.34-.61-.62-.33-1.49-.07-2.19,.02-.04,.04-.09,.02-.14,0-.03-.03-.06-.05-.08-.14-.18-.45-.67-.67-.74-.23-.07-.54,.26-.68,.42-.24,.28-.46,.63-.37,.99,.04,.14,.12,.27,.19,.4,.3,.54,.39,1.19,.25,1.79-.09,.42-.32,.84-.72,1.02-.26,.11-.55,.11-.83,.04-.5-.12-.97-.43-1.22-.89-.25-.45-.27-1.04,0-1.48,.34-.56,1.03-.79,1.65-.98-.04-.3-.03-.23-.06-.53-.78-.04-1.57-.04-2.35-.02-.23,0-.47,.02-.67,.13-.58,.34-.41,1.21-.72,1.81-.33,.64-1.24,.83-1.89,.51-.65-.32-1.03-1.03-1.13-1.75-.07-.49,0-1.05,.31-1.45,.4-.49,1.03-.55,1.63-.51,.43,.03,.87,.19,1.17,.5,.04,.04,.08,.09,.14,.11,.04,.02,.09,.02,.14,.01,.46,0,.91-.04,1.38-.04,.74,0,1.51,.05,2.25,0,.5-.04,.97-.65,1.11-1.21,.1-.38-.03-.57,0-1.34,.02-.43,.07-.78,.12-1.01-.4-.26-.85-.53-1.38-.78-.61-.3-1.19-.52-1.7-.69-.17,.34-.62,.74-.73,.85-.1,.1-.9,.62-1.06,.75,.07-.06,.42,1.28,.07,1.77-.24,.34-.69,.48-1.1,.44-.41-.05-.8-.21-1.12-.47-.12-.09-.23-.25-.29-.38-.07-.15-.09-.32-.07-.49,.05-.5,.36-.97,.81-1.2,.45-.24,1.01-.23,1.45,0,.08,.05,1.07-.77,1.18-.86,.02-.02,.04-.03,.06-.05,.16-.15,.3-.31,.4-.49-1.95-.54-3.73-.51-4.74-.43-.27,.38-.57,.77-1,.95-.32,.13-.68,.12-1.03,.08-.45-.06-.9-.19-1.24-.48-.35-.28-.58-.74-.5-1.19,.04-.21,.15-.41,.29-.58,.42-.5,1.14-.7,1.79-.59,.39,.07,1.51,.53,1.83,1.04,.34-.05,.75-.09,1.22-.09-.14-.3-.21-.73-.23-.86-.01-.1-.07-.87-.03-1.1,0-.03-.01-.06-.04-.06-.28-.02-.94-.46-1.07-.92-.1-.34,.04-.73,.29-.98,.25-.26,.59-.4,.94-.48,.12-.03,.26-.05,.38-.02,.14,.03,.27,.11,.37,.21,.31,.3,.47,.76,.39,1.19-.07,.43-.37,.81-.77,.98-.08,.03-.05,1.13-.04,1.26,0,.02,0,.04,0,.07,.02,.27,.08,.5,.22,.72,.83,.03,1.84,.16,3,.48,.01-.49-.09-.97-.24-1.43,0-.03-.02-.06-.04-.08-.03-.03-.07-.05-.12-.06-.62-.2-1.12-.72-1.29-1.35-.04-.17-.07-.34-.04-.51,.05-.3,.25-.56,.5-.74,.25-.18,.54-.28,.83-.37,.1-.03,.19-.05,.29-.05,.18,.01,.34,.12,.48,.25,.3,.27,.57,.62,.59,1.03,.02,.44-.24,.85-.58,1.14-.13,.11-.27,.22-.33,.39-.03,.09-.03,.18-.02,.27,.03,.26,.11,.51,.23,.74,.81-.39,1.31-1.23,1.59-2.08,.05-.15,.09-.31,.01-.45-.03-.06-.08-.1-.13-.15-.34-.36-.43-.92-.24-1.38,.19-.46,.62-.8,1.1-.9,.22-.05,.46-.05,.67,.02,.36,.12,.63,.45,.77,.81,.12,.29,.17,.62,.07,.91-.08,.23-.25,.42-.43,.59-.15,.15-.32,.29-.51,.38-.2,.09-.42,.13-.63,.07-.22,.56-.47,1.1-.74,1.64-.09,.18-.32,.48-.41,.57-.23,.22-.44,.27-.72,.41-.08,.04-.17,.09-.21,.17-.05,.12,.02,.23,.08,.35,.56,.18,1.16,.4,1.79,.68,.84,.37,1.68,.88,2.49,1.42,.47-.29,.97-1.17,.45-3.74,0,0,0,0,.02,.02-.01-.07-.02-.13-.03-.19-.07-.54,.05-1.11,.4-1.51,.23-.26,.55-.45,.69-.77,.04-.1,.07-.21,.14-.29,.17-.19,.48-.13,.72-.2,.33-.1,.53-.44,.84-.58,.33-.15,.72-.06,1.09-.07,.26,0,.58-.03,.71,.2,.07,.13,.04,.29,.08,.43,.07,.25,.34,.43,.39,.68,.04,.24-.14,.46-.15,.71-.01,.24,.14,.48,.06,.7-.06,.15-.21,.24-.28,.38-.09,.19-.03,.42-.11,.62-.07,.19-.26,.31-.38,.48-.15,.22-.17,.53-.37,.71-.18,.17-.46,.17-.7,.24-.04,.01-.11,.04-.2,.08-.09,.05-.17,.12-.26,.18-.1,.06-.22,.11-.34,.14-.63,.38-1.48,1.08-2.06,2.28,1.58,1.08,3.01,2.11,4.08,2.18,1.06,.07,1.84-.32,2.68-1.32,.46-.54,.9-1.05,1.34-1.51-.13-.12-.26-.24-.39-.36-.18,.25-.48,.39-.79,.41-.3,.02-.61-.06-.88-.2-.23-.12-.45-.27-.6-.48-.32-.43-.34-1.04-.08-1.5,.26-.46,.77-.76,1.3-.8,.37-.02,.77,.09,.99,.39,.3,.4,.18,.98,.31,1.47,.08,.23,.38,.49,.48,.74,1.39-1.41,2.74-2.42,4.33-3.13,.04-.12,.08-.23,.02-.34-.05-.08-.14-.12-.23-.14-.34-.11-.48-.22-.79-.48-.33-.26-.51-.54-.54-.58-.77-1-.67-1.2-1.02-1.37-.39-.19-.59,.04-1.03-.23-.09-.06-.34-.22-.5-.53-.14-.28-.13-.61-.05-.91,.1-.37,.23-.67,.57-.84,.2-.1,.53-.18,.75-.16,.49,.05,.97,.33,1.21,.75,.24,.43,.23,1-.07,1.4-.04,.05-.08,.1-.11,.16-.06,.14,0,.31,.07,.45,.39,.81,.99,1.58,1.85,1.86,.1-.24,.14-.5,.14-.76,0-.09-.01-.19-.05-.27-.07-.15-.23-.24-.37-.34-.36-.25-.68-.62-.71-1.06-.03-.4,.19-.79,.46-1.09,.12-.14,.25-.2,.43-.24,.1-.02,.31-.06,.41-.04,.3,.05,.5,.1,.77,.24,.27,.14,.5,.38,.59,.67,.05,.17,.05,.34,.03,.51-.08,.64-.52,1.23-1.1,1.5-.04,.02-.08,.04-.11,.07-.02,.02-.02,.05-.03,.08-.09,.48-.13,.96-.05,1.44,.88-.34,1.82-.59,2.86-.75,.15-.26,.2-.55,.18-.85,0,0,0-.03,0-.07-.04-.45-.08-.99-.32-1.35-.26-.41-.54-.23-.75-.6-.23-.4-.17-1.04,.22-1.4,.27-.25,.6-.27,.72-.28,.12,0,.65-.04,1,.36,.27,.31,.32,.75,.19,1.09-.18,.46-.6,.39-.76,.83-.14,.37,.1,.58,.12,1.22,.01,.42-.08,.77-.15,.98,.37,.07,.91,.11,1.45-.15,.77-.37,.77-1,1.5-1.28,.52-.2,1.38-.22,1.85,.35,.41,.5,.37,1.28,.02,1.78-.39,.54-1.04,.61-1.17,.63-.84,.1-1.13-.45-2.21-.7-.8-.18-1.44-.07-2.11,.05-1.09,.19-1.92,.61-2.46,.93,.12,.16,.28,.3,.45,.42,.02,.01,.04,.03,.06,.04,.12,.08,1.21,.76,1.28,.7,.41-.29,.96-.37,1.44-.19,.47,.18,.84,.6,.95,1.09,.04,.16,.05,.34,0,.49-.05,.14-.15,.26-.25,.37-.29,.3-.63,.56-1.04,.66-.4,.1-.87,.01-1.15-.29-.41-.44-.25-1.23-.04-1.7-.07,.15-1.2-.56-1.36-.66-.12-.1-.52-.45-.74-.76-.19,.08-.37,.17-.55,.26-.52,.27-.93,.52-1.18,.68-.36,.23-.76,.53-1.19,.89,.07,.17,.18,.43,.27,.76,.2,.81,.04,1.1,.22,1.56,.22,.56,.78,1.08,1.26,1.06,.74-.04,1.5-.18,2.24-.28,.46-.06,.91-.09,1.37-.14,.05,0,.09,0,.13-.03,.05-.03,.09-.08,.12-.13,.26-.35,.67-.56,1.1-.65,.59-.12,1.22-.14,1.68,.3,.37,.35,.5,.9,.5,1.4-.01,.72-.3,1.47-.9,1.88-.6,.4-1.52,.33-1.94-.26-.38-.55-.33-1.44-.94-1.7-.21-.09-.45-.07-.68-.05-.78,.08-1.56,.18-2.33,.32,0,.3,0,.23,0,.54,.65,.11,1.35,.25,1.76,.76,.32,.4,.38,.99,.19,1.47-.19,.48-.61,.85-1.09,1.03-.26,.1-.56,.14-.82,.07-.42-.12-.7-.51-.84-.92-.21-.58-.2-1.23,.02-1.81,.05-.14,.12-.27,.14-.42,.04-.37-.22-.69-.5-.94-.15-.14-.51-.43-.73-.33-.21,.1-.45,.62-.57,.82-.02,.03-.03,.05-.04,.09,0,.05,.02,.09,.04,.13,.34,.66,.73,1.48,.21,2.18-.29,.39-.82,.56-1.3,.51-.27-.03-.55-.14-.73-.34-.45-.53-.29-1.6,.14-2.09,.28-.31,.68-.51,1.1-.53,.05,0,.11,0,.16-.03,.07-.04,.1-.1,.11-.13,.85-1.88,.33-2.78,.33-2.78-.08-.14-.13-.46-.4-.67-1.44,1.44-2.48,3.22-2.6,4.68,0,0,.16,8.81,.31,10.93,.16,2.12,.67,10.98,.67,10.98,0,0,.34-.2,.9-.54-.12-1.69-.02-4.55,1.62-7.03,.14-.21,.28-.4,.43-.59,.05-.06,.1-.13,.15-.19,.42-.5,.87-.94,1.34-1.32,0-.05-.02-.11-.04-.17-.02-.05-.09-.23-.24-.26-.08-.02-.13,.04-.35,.1-.11,.03-.21,.08-.32,.1-.34,.07-.7,.04-1-.15-.37-.23-.6-.68-.52-1.1,.08-.42,.5-.77,.93-.73,.23,.02,.43,.14,.61,.29,.24,.2,.47,.43,.62,.7,.08,.13,.12,.27,.16,.42,.02,.07,0,.11,.04,.17,.04,.06,.07,.13,.12,.18,.04,.04,.1,.1,.19,.14,.07,.03,.13,.03,.17,.04,0,0,.02-.01,.02-.02l.29-.2c.29-.18,.58-.36,.87-.55,.12-.07,.24-.13,.36-.2,.02-.01,.04-.02,.06-.03-.12-.21-.22-.46-.26-.55-.03-.1-.29-.96-.22-1.12,0,0-.17-.01-.37-.03-.26-.03-.66-.12-.89-.55-.16-.3-.11-.68,.07-.97,.08-.14,.19-.39,.58-.63,.19-.12,.37-.1,.49-.11,.14,0,.33,.05,.45,.12,.35,.21,.59,.61,.6,1.02,.02,.41-.18,.83-.52,1.07-.07,.05,.18,1.06,.22,1.18,0,.02,.01,.04,.02,.06,.05,.16,.08,.26,.14,.36,.27-.13,.53-.25,.77-.35,.1-.04,.2-.08,.3-.12,.33-.13,.64-.23,.9-.31,.19-.31,.54-.63,.7-.72,.34-.2,.79-.25,1.13-.06,.12,.06,.22,.15,.29,.27,.14,.23,.11,.54-.03,.78-.14,.24-.36,.41-.6,.54-.18,.1-.39,.18-.6,.18-.29,0-.56-.17-.8-.34-.02-.01-.04-.03-.06-.04-.45,.1-1.04,.27-1.66,.54,.14,.13,.3,.23,.49,.31,.02,0,.04,.02,.06,.02,.11,.04,1.19,.43,1.24,.37,.27-.3,.6-.5,1-.44,.4,.06,.77,.33,.94,.7,.06,.12,.1,.26,.08,.39-.01,.12-.07,.23-.14,.33-.17,.29-.4,.55-.71,.7-.3,.15-.69,.16-.96-.03-.4-.28-.59-.93-.33-1.34,0,.01-.97-.24-1.07-.27-.31-.1-.74-.35-.93-.6-.52,.26-1.1,.61-1.6,1.05,.08,.11,.25,.34,.54,.46,.08,.03,.23,.09,.41,.07,.15-.02,.24-.09,.31-.11,.34-.08,.69-.06,1,.11,.37,.21,.62,.65,.55,1.07-.06,.42-.46,.78-.89,.76-.22-.01-.43-.12-.61-.26-.24-.19-.48-.4-.65-.67,0-.01,0,0-.17-.41-.07-.16-.1-.24-.17-.33-.08-.11-.17-.17-.22-.22-.08-.06-.2-.14-.36-.2-.24,.22-.53,.53-.8,.96,0,0-.13,.2-.24,.41-1.51,2.86-.69,5.31-.49,5.81,2.53-1.61,5.72-3.77,6.66-5.02,1.51-2.02,4.08-3.95,3.69-7.95-.4,.06-.8,.07-1.19,0-.56-.1-1.1-.39-1.4-.86-.19-.31-.29-.69-.56-.93-.08-.08-.19-.14-.25-.23-.14-.23,.02-.52,.02-.78,0-.37-.28-.67-.33-1.03-.05-.37,.16-.74,.26-1.11,.07-.26,.15-.59,.42-.65,.15-.03,.3,.05,.46,.05,.27,.01,.53-.21,.8-.18,.26,.03,.42,.28,.66,.36,.23,.08,.53,0,.72,.15,.13,.1,.18,.28,.3,.39,.16,.15,.41,.16,.59,.3,.17,.13,.23,.36,.36,.52,.18,.22,.48,.33,.59,.59,.14,.3-.02,.67,.04,1,.02,.11,.07,.21,.1,.32,.06,.23,.03,.48,0,.72-.04,.3-.19,.61-.4,.84,.25,1.63,.4,4.74-1.32,7.69,0,0,4.84,.2,9.05-2.82-.46-.45-.92-.71-1.23-.86,0,0-.94-.45-2.39-.34-.03,0-.1,0-.16,.06-.04,.04-.06,.09-.08,.14-.16,.39-.49,.7-.88,.86-.6,.24-1.66,.02-2-.59-.14-.24-.14-.54-.07-.8,.11-.47,.46-.91,.92-1.05,.83-.25,1.47,.39,1.97,.94,.03,.04,.07,.07,.11,.08,.03,0,.06,0,.1,0,.22-.05,.8-.09,.96-.26,.17-.17,.02-.6-.06-.79-.13-.34-.35-.7-.71-.79-.15-.03-.3-.02-.45-.01-.62,.01-1.23-.2-1.71-.6-.33-.28-.6-.68-.57-1.11,.02-.28,.16-.54,.34-.75,.34-.39,.83-.66,1.35-.67,.52-.02,1.04,.24,1.31,.68,.34,.55,.23,1.26,.11,1.9,.29,.11,.22,.08,.51,.19,.39-.67,.75-1.36,1.09-2.06,.1-.21,.2-.42,.19-.65-.03-.66-.89-.92-1.27-1.47-.42-.59-.17-1.48,.42-1.91,.58-.43,1.39-.44,2.07-.2,.46,.16,.94,.48,1.14,.95,.25,.58,.02,1.17-.3,1.68-.23,.37-.57,.69-.98,.81-.06,.02-.12,.03-.16,.07-.04,.03-.06,.07-.08,.11-.2,.42-.38,.83-.6,1.24-.56,1.09-1.01,1.23-1.03,2.01-.01,.74,.53,1.29,.82,1.58,.7,.7,1.53,.94,1.97,1.04,.07-.05,.13-.1,.2-.16,.48-.39,.87-.82,1.18-1.24-.03-.16-.05-.29-.07-.38-.02-.07-.08-.36-.21-.7-.04-.09-.09-.17-.15-.27-.05-.08-.11-.1-.19-.16-.17-.14-.31-.29-.44-.47-.25-.38-.39-.82-.5-1.25-.08-.31-.09-.66,.03-.96,.23-.58,.94-.89,1.53-.72,.59,.17,1.03,.75,1.08,1.37,.04,.5-.15,.99-.45,1.38-.1,.13-.22,.22-.33,.34-.04,.04-.37,.34-.36,.38,.02,.05,.07,.16,.15,.29,.1,.18,.22,.4,.32,.62,.26-.43,1.43-2.44,1.87-4.16,.2-.79,.19-1.28,.02-1.71-.13-.32-.36-.65-.5-.85-.36-.51-.46-.5-.64-.78-.33-.53-.47-1.39-.07-2.08,.27-.46,.68-.66,.82-.73,.5-.26,1.12-.27,1.64-.04,.57,.26,.81,.97,.77,1.56-.04,.49-.22,.95-.42,1.4-.12,.26-.31,.56-.43,.84-.21,.5-.2,.85-.36,1.35,0,.02-.01,.03-.01,.05-.05,.3-.12,.64-.22,1-.04,.21-.08,.48-.12,.66,.44,.37,.96,.61,1.51,.79,.03,.01,.06,.02,.09,.02,.05,0,.09-.04,.13-.06,.56-.41,1.34-.52,1.99-.27,.17,.07,.34,.16,.47,.29,.23,.23,.33,.57,.33,.9,0,.33-.1,.65-.21,.96-.04,.1-.07,.2-.14,.29-.12,.15-.33,.22-.52,.26-.43,.1-.9,.1-1.27-.14-.4-.26-.58-.75-.62-1.22-.02-.18-.02-.38-.13-.53-.06-.08-.14-.14-.23-.19-.24-.14-.51-.23-.79-.26-.18,.95,.24,1.92,.8,2.71,.1,.14,.22,.28,.38,.3,.07,0,.14,0,.21-.02,.53-.07,1.07,.21,1.35,.66,.28,.45,.3,1.04,.09,1.53-.1,.22-.24,.43-.44,.57-.34,.24-.79,.26-1.19,.16-.32-.08-.64-.24-.83-.52-.15-.22-.21-.48-.24-.75-.03-.23-.05-.46,0-.69s.15-.45,.34-.59c-.35-.55-.67-1.11-.96-1.68-.1-.19-.14-.51-.18-.72-.06-.34-.02-.55,.04-.89,.02-.1,.03-.2-.02-.29-.06-.09-.12-.1-.2-.11-.49,1.39-1.28,3-2.59,4.6-.18,.23-.38,.45-.58,.67,.03,.1,.13,.35,.38,.5,.28,.17,.58,.12,.75,.1,.23-.04,.36-.14,.48-.16,.52-.12,1.07-.08,1.54,.19,.57,.33,.94,1.01,.83,1.66-.11,.65-.73,1.2-1.38,1.16-.43-.03-.75-.26-.94-.41-.49-.4-.48-.74-1.16-1.72-.09-.14-.29-.42-.64-.68-.12-.09-.22-.15-.29-.19-.89,.9-1.91,1.72-2.99,2.43,.01,.02,.03,.05,.06,.08,.07,.08,.15,.12,.21,.15,.1,.04,.18,.01,.41-.06,.23-.07,.34-.12,.4-.14,.43-.1,.89-.07,1.28,.16,.47,.27,.78,.84,.69,1.38-.09,.57-.67,.93-1.15,.96-.68,.04-1.41-.58-1.6-1.21-.08-.26-.1-.66-.44-.96-.08-.07-.16-.12-.21-.14-3.24,2.07-6.93,3.22-9.25,2.79,0,0-5.39,3.68-6.75,5.27-1.36,1.59-4.13,5.26-4.13,5.26,0,0,.52,18.51,.95,18.69,.44,.18,4.48-2.27,8.29-2.69,.13-.02,.27-.03,.41-.05,.03-.99,.13-2.26,.4-3.71-.05,0-.1,0-.15,.01-.61,.1-1.13,.46-1.62,.83-.06,.04-.11,.09-.14,.15-.03,.06-.02,.13-.01,.2,.04,.52-.14,1.05-.48,1.44-.53,.6-1.82,.97-2.55,.49-.29-.19-.46-.51-.54-.84-.14-.59-.01-1.26,.42-1.68,.77-.75,1.84-.4,2.71-.08,.05,.02,.11,.04,.17,.03,.04-.01,.07-.04,.1-.06,.22-.18,.83-.56,.92-.83,.09-.29-.33-.68-.52-.84-.34-.3-.79-.58-1.23-.46-.18,.04-.34,.15-.5,.24-.67,.37-1.47,.48-2.22,.31-.52-.12-1.05-.4-1.26-.89-.14-.32-.13-.69-.05-1.02,.15-.62,.54-1.2,1.1-1.51,.56-.31,1.29-.33,1.84,0,.69,.42,.97,1.26,1.21,2.03,.19,0,.39,.01,.58,.02,.11-1.26,.13-2.27,.12-2.99,0-.37-.03-.59-.17-.83-.42-.71-1.51-.51-2.24-.89-.8-.41-1.03-1.54-.63-2.34,.4-.8,1.28-1.27,2.17-1.4,.61-.09,1.31,0,1.8,.39,.61,.49,.68,1.28,.63,2.02-.04,.54-.23,1.08-.62,1.45-.05,.05-.11,.1-.14,.17-.02,.05-.02,.11-.02,.17,.01,.57,.05,1.13,.05,1.71,0,.92-.06,1.88,0,2.79,.06,.75,.7,1.38,1.43,1.38,.64-2.88,1.95-6.34,4.57-9.65,.03-.04,.06-.08,.09-.12-.23-.34-.37-.75-.72-.96-.18-.11-.39-.14-.59-.2-.46-.14-.89-.42-1.2-.79-.22-.26-.38-.58-.41-.91-.05-.64,.48-1.25,1.12-1.36,.64-.11,1.31,.24,1.63,.8,.33,.55,.33,1.27,.08,1.86-.08,.19-.2,.4-.13,.61,.04,.1,.11,.18,.19,.25,.05,.05,.21,.15,.39,.28,1.07-1.27,2.15-2.28,3.2-3.09,.04-.26,.21-.64,.12-.82-.05-.1-.16-.14-.26-.18-.34-.14-.62-.23-.89-.48-.07-.07-.23-.17-.5-.58-.76-1.13-.55-1.64-1.05-1.95-.45-.27-.75,.05-1.31-.33-.1-.07-.38-.27-.55-.65-.14-.33-.11-.72,0-1.07,.14-.43,.42-.83,.83-1,.24-.1,.52-.12,.78-.08,.07,.01,1.04,.17,1.36,.96,.22,.55,.06,1.22-.16,1.51-.03,.04-.11,.14-.15,.3,0,0-.07,.24,.05,.52,.4,.97,1.05,1.91,2.03,2.3,.13-.27,.2-.58,.21-.88,0-.11,0-.22-.04-.32-.07-.19-.25-.3-.41-.42-.41-.31-.76-.77-.77-1.28,0-.47,.27-.91,.61-1.25,.15-.15,.34-.31,.55-.34,.12-.01,.42-.02,.54,0,.35,.08,.49,.22,.8,.41,.3,.19,.56,.47,.64,.82,.05,.2,.04,.4,0,.6-.14,.74-.69,1.4-1.39,1.68-.05,.02-.1,.04-.13,.08-.02,.03-.03,.06-.04,.1-.15,.6-.23,1.2-.15,1.81,1.38-.96,2.7-1.58,3.88-1.98,.16-.38,.42-.78,.46-.91,.04-.12,.09-.25,.07-.38-.03-.26-.27-.43-.47-.6-.61-.51-.99-1.31-.93-2.1,.06-.79,.61-1.55,1.37-1.77,.76-.23,1.68,.16,1.98,.9,.16,.39,.15,.83,.05,1.23-.14,.58-.45,1.12-.89,1.53-.19,.18-.4,.33-.54,.55-.23,.36-.21,.9-.25,1.34,.16-.07,.36-.16,.59-.25,.17-.07,.33-.13,.53-.2,.39-.13,.46-.14,.78-.24,.11-.03,.27-.09,.45-.19,.39-.22,.55-.52,.74-.68,.4-.33,.82-.65,1.31-.82,.59-.21,1.38-.16,1.81,.35,.38,.46,.54,1.1,.42,1.69-.09,.42-.27,.77-.52,1.04-.72,.79-1.77,.72-1.97,.71-.34-.03-.91-.08-1.26-.47-.11-.12-.19-.27-.39-.36-.28-.12-.58-.03-.73,.02-1.27,.41-1,.12-2.47,.68-.24,.1-.56,.22-.98,.4-.74,.33-1.94,.94-3.45,2,.22,.19,.41,.39,.49,.44,.09,.06,.19,.12,.3,.14,.22,.03,.42-.13,.6-.26,.56-.39,1.3-.55,1.94-.33,.64,.22,1.16,.83,1.18,1.51,.03,.68-.49,1.36-1.16,1.45-.35,.05-.72-.05-1.03-.22-.45-.24-.83-.62-1.08-1.06-.11-.19-.19-.4-.34-.56-.35-.38-.96-.39-1.4-.66-.68,.62-1.33,1.32-1.92,2.06,.29,.17,.73,.45,1.15,.91,.65,.69,.68,1.14,1.24,1.5,.64,.4,1.36,.32,1.59,.29,1.07-.13,1.16-.6,2.48-1.28,.51-.26,1.02-.49,1.54-.74,.05-.03,.11-.05,.14-.1,.05-.06,.07-.13,.09-.2,.15-.52,.55-.94,1-1.22,.64-.39,1.37-.68,2.08-.37,.58,.25,.98,.83,1.18,1.41,.3,.84,.28,1.85-.24,2.57-.52,.72-1.63,1.04-2.36,.52-.68-.48-1-1.53-1.83-1.57-.28-.01-.55,.11-.81,.23-.87,.42-1.72,.87-2.55,1.36,.14,.36,.1,.27,.24,.64,.79-.15,1.67-.29,2.36,.13,.55,.33,.87,.99,.85,1.63-.02,.64-.34,1.25-.83,1.67-.26,.23-.58,.41-.93,.43-.53,.04-1.03-.3-1.38-.71-.49-.58-.76-1.35-.75-2.11,0-.18,.02-.37-.02-.55-.11-.44-.55-.71-.98-.87-.24-.09-.77-.28-.99-.07-.2,.2-.26,.92-.31,1.2,0,.04-.02,.08,0,.12,.01,.06,.06,.1,.1,.14,.69,.63,1.49,1.41,1.18,2.45-.17,.58-.71,1-1.3,1.15-.33,.08-.7,.08-1-.09-.75-.42-1.03-1.73-.74-2.49,.19-.49,.58-.89,1.06-1.09,.06-.03,.13-.05,.17-.1,.05-.05,.06-.13,.07-.2,.1-.6,.18-1.23-.01-1.82-.13-.4-.29-1.05-.89-1.54-.42-.34-.86-.47-1.11-.52-.17,.23-.3,.43-.45,.68-2.87,4.63-2.1,9.74-1.34,12.47,3.47-.49,7.37-1.31,9.81-2.97,3.7-2.51,6.21-4.12,7.68-10.14,1.47-6.02,.86,1.75,.86,1.75,0,0,3.75-2.22,7.76-1.74,.03-.07,.12-.26,.2-.42,.02-.04,.03-.09,.05-.13,.03-.1,.08-.21,.09-.32,0-.07,0-.2-.02-.3-.01-.09-.06-.13-.1-.22-.09-.19-.16-.38-.19-.59-.07-.43,0-.88,.07-1.31,.06-.31,.18-.62,.41-.84,.44-.42,1.19-.4,1.65,0,.46,.39,.6,1.08,.4,1.65-.17,.47-.53,.81-.96,1.04-.09,.05-.25,.06-.43,.17-.08,.05-.3,.18-.44,.42-.24,.42-.04,.9,0,.97,.02,0,.05,0,.07,.01,2.48,.52,4.62,1.46,5.98,2.17,.1-.12,.11-.22,.11-.29,0-.42-.68-.55-1.05-1.25-.02-.05-.08-.13-.15-.43-.16-.68-.29-1.37-.39-2.07-.25,.02-.5-.09-.69-.25-.2-.16-.34-.36-.48-.58-.15-.24-.29-.5-.32-.79-.04-.36,.11-.72,.33-1.01,.26-.36,.65-.66,1.1-.7,.26-.02,.53,.05,.77,.17,.52,.26,.91,.76,1,1.33,.08,.57-.17,1.19-.66,1.5-.07,.04-.13,.08-.19,.13-.12,.13-.12,.33-.11,.52,.08,1.05,.42,2.14,1.23,2.81,.21-.22,.37-.49,.47-.77,.04-.1,.07-.21,.06-.32-.01-.2-.15-.36-.26-.53-.3-.42-.49-.96-.34-1.45,.13-.44,.5-.75,.91-.97,.19-.11,.42-.15,.64-.11,.11,.02,.25,.02,.35,.08,.31,.18,.61,.38,.84,.65,.23,.27,.39,.62,.36,.98-.02,.2-.09,.39-.18,.57-.36,.67-1.08,1.12-1.84,1.18-.05,0-.11,0-.15,.04-.03,.02-.05,.05-.07,.08-.34,.55-.61,1.13-.7,1.77,.38,.19,.75,.51,1.16,.64,.26,.08,.56,.11,.8,.18,.41,.12,.82,.25,1.16,.5,.41,.3,.75,.86,.6,1.38-.13,.47-.49,.87-.94,1.06-.95,.4-1.85-.04-2.33-.87-.37-.63-.28-1.28-.28-1.28,.01-.13,.04-.25-.01-.41-.12-.36-.55-.5-.69-.58-.74-.41-1.95-1.04-3.83-1.91,0,.13,0,.42,.17,.72,.04,.08,.14,.24,.32,.37,.36,.25,.68,.06,1.12,.14,.63,.12,1.02,.68,1.1,.8,.27,.42,.52,1.24,.06,1.92-.38,.56-1.2,.81-1.8,.49-.31-.17-.55-.47-.7-.79-.21-.44-.41-.91-.47-1.4-.03-.24,0-.47,.03-.71,.02-.14,.04-.14,.04-.21,0-.23-.1-.43-.26-.71-.04-.07-.09-.15-.14-.23l-.41-.62c-.2-.04-.4-.08-.61-.12-.53-.09-1.03-.13-1.48-.15-.07,.31-.2,.76-.47,1.26-.35,.65-.61,.75-.7,1.17-.13,.62,.13,1.44,.63,1.69,.73,.37,1.53,.64,2.29,.96,.47,.2,.92,.42,1.38,.62,.05,.02,.1,.04,.15,.04,.07,0,.12-.03,.18-.05,.44-.19,.95-.17,1.4-.02,.63,.21,1.24,.54,1.44,1.2,.16,.53-.01,1.14-.29,1.6-.4,.68-1.09,1.24-1.89,1.3-.79,.06-1.64-.52-1.7-1.31-.06-.73,.47-1.56,.03-2.14-.15-.2-.39-.31-.62-.42-.78-.35-1.57-.67-2.38-.96-.17,.3-.13,.23-.3,.52,.55,.45,1.14,.97,1.25,1.68,.09,.56-.17,1.15-.62,1.51-.45,.36-1.05,.48-1.61,.39-.3-.05-.61-.17-.82-.39-.33-.34-.39-.87-.3-1.34,.12-.67,.48-1.29,1.01-1.71,.13-.1,.27-.2,.36-.33,.24-.33,.17-.78,.04-1.17-.07-.21-.25-.68-.52-.71-.25-.02-.77,.35-.99,.47-.03,.02-.06,.04-.08,.06-.03,.04-.03,.1-.04,.15-.03,.82-.11,1.82-.99,2.2-.49,.21-1.09,.09-1.52-.23-.24-.18-.45-.43-.51-.73-.14-.75,.59-1.69,1.27-1.92,.44-.15,.94-.12,1.35,.09,.05,.03,.11,.06,.17,.06,.08,0,.15-.05,.17-.07,1.65-1.2,2.01-2.5,2.01-2.5,.06-.2,.13-.52,.15-.91-.87,.06-2.14,.26-3.53,.88-2.06,.92-3.25,2.28-4.87,4.18-1.05,1.23-2.39,3-3.67,5.34,.69-.17,1.52-.47,2.54-.95,0,0,0,.02-.02,.03,.08-.04,.17-.07,.26-.11,.73-.28,1.56-.31,2.24,.03,.64,.33,.57,.46,1.31,.7,.24,.08,.5,.14,.7,.37,.2,.22,.15,.39,.28,.66,.25,.55,.68,.43,1.1,.97,.32,.4,.33,.98,.46,1.48,.1,.35,.24,.8-.03,1.05-.16,.15-.39,.15-.58,.26-.33,.18-.47,.62-.81,.77-.32,.14-.69-.03-1.03,.04-.33,.07-.62,.36-.96,.32-.22-.03-.4-.2-.62-.26-.29-.07-.6,.1-.9,.06-.29-.04-.52-.26-.79-.36-.36-.13-.79-.06-1.11-.27-.29-.2-.4-.58-.57-.89-.04-.05-.1-.14-.18-.26-.1-.11-.22-.19-.33-.3-.12-.12-.22-.27-.3-.43-.54-.54-1.34-1.18-2.45-1.64-3.44,2.01-7.6,2.92-12.77,3.97-.89,.18-1.78,.45-2.64,.8,.25,1.4,1.23,4.75,4.89,6.76,.11-.58,.08-1.17-.02-1.75,0-.04-.01-.07-.03-.1-.03-.04-.08-.07-.12-.09-.68-.33-1.18-1.03-1.26-1.78-.02-.2-.02-.41,.04-.6,.11-.34,.39-.61,.7-.77,.32-.16,.52-.28,.87-.33,.11-.02,.39,.01,.5,.04,.21,.04,.38,.2,.52,.37,.31,.36,.55,.82,.51,1.29-.05,.51-.43,.94-.86,1.22-.17,.11-.36,.21-.45,.39-.05,.1-.06,.21-.07,.31-.01,.3,.04,.61,.15,.9,1.01-.31,1.73-1.2,2.2-2.14,.08-.16,.16-.35,.09-.52-.03-.07-.08-.13-.12-.19-.34-.47-.34-1.14-.05-1.64,.29-.5,.85-.81,1.43-.86,.26-.02,.54,.02,.77,.14,.4,.2,.65,.63,.75,1.06,.09,.35,.09,.74-.08,1.06-.18,.34-.46,.53-.6,.61-.12,.07-.23,.1-.34,.12-.54,.09-.73-.01-1,.05-.51,.12-.53,.84-1.35,1.94-.15,.2-.29,.36-.51,.52-.31,.22-.65,.36-.65,.36-.27,.11-.37,.11-.45,.22-.09,.15-.07,.43,.06,.52,.13,.09,.29,.13,.44,.2,1.05,.43,2.06,.67,3.03,.77,.48-.53,.63-.99,.68-1.31,.03-.2,0-.2,.03-.63,.05-.63,.07-.95,.24-1.29,.14-.27,.35-.52,.62-.66,.52-.27,1.22-.04,1.54,.46,.32,.49,.26,1.18-.09,1.65-.35,.47-.95,.73-1.54,.72-.15,0-.39-.04-.55,.11-.05,.05-.1,.12-.18,.44-.06,.22-.09,.41-.12,.56,1.13,.05,2.15-.08,3.09-.29,.48-.59,.62-1.08,.67-1.44,.02-.17,0-.18,.04-.55,.06-.65,.09-.99,.24-1.29,.14-.27,.35-.53,.62-.67,.52-.27,1.22-.04,1.54,.46,.32,.5,.26,1.18-.1,1.65-.35,.47-.95,.73-1.53,.72-.12,0-.39-.05-.55,.11-.08,.07-.11,.17-.17,.33-.07,.2-.1,.38-.12,.51,.26,0,.7-.01,1.19-.22,.55-.23,.87-.57,.95-.66,.17-.18,.16-.23,.38-.47,.21-.23,.43-.46,.71-.61,.34-.18,.81-.22,1.11,.05,.27,.24,.42,.61,.4,.97s-.21,.71-.51,.92c-.41,.29-.96,.3-1.46,.22-.28-.05-.3-.08-.51-.1-.54-.05-1.03,.19-1.41,.47,.05,.05,.1,.1,.16,.14,.39,.26,.88,.34,1.33,.41,.1,.02,.21,.03,.31,.01,.12-.02,.22-.09,.32-.16,.44-.28,.93-.5,1.45-.5,.52,0,1.06,.3,1.22,.79,.09,.29,.05,.6-.04,.89-.09,.28-.23,.55-.44,.75-.43,.43-1.14,.56-1.69,.3-.55-.26-.91-.89-.85-1.49-.47-.14-.92-.3-1.36-.5-.27-.12-.59-.29-.84-.51-.28,.06-.73,.14-1.3,.22-.01,.05-.02,.1-.04,.14-.15,.63-.12,1.27-.01,1.91,0,.04,.01,.07,.03,.1,.03,.04,.08,.07,.12,.09,.68,.33,1.18,1.03,1.26,1.78,.02,.14,.04,.35-.04,.6-.21,.65-.98,1.1-1.71,1.05-.12,0-.53-.04-.89-.35-.37-.31-.56-.82-.51-1.29,.05-.51,.43-.94,.86-1.22,.17-.11,.36-.21,.45-.39,.05-.1,.06-.21,.07-.31,.01-.3-.04-.61-.15-.89-1,.31-1.73,1.2-2.2,2.14-.08,.16-.16,.35-.09,.52,.03,.07,.08,.13,.12,.19,.34,.47,.34,1.14,.05,1.64-.29,.5-.85,.81-1.43,.86-.27,.02-.54-.01-.78-.14-.4-.2-.65-.63-.75-1.06-.09-.35-.09-.74,.08-1.06,.16-.31,.4-.48,.6-.61,.45-.3,.76-.3,1.11-.43,.83-.31,.61-.87,1.59-1.59,.78-.58,1.47-.63,1.58-1.18,.03-.17,0-.31-.02-.4-1.23,.12-2.83,.15-4.48-.13-.19,.3-.32,.81-.32,1.1,0,.7,.11,.98-.09,1.49-.05,.13-.26,.65-.76,.83-.51,.18-1.16-.04-1.39-.48-.08-.16-.09-.3-.1-.44-.04-.65,.3-1.3,.85-1.64,.25-.15,.54-.25,.8-.39,.23-.13,.45-.32,.53-.56-1.07-.22-2.15-.59-3.16-1.16-3.05-1.73-5.38-4.34-6.56-5.85-3.11,1.87-5.46,4.43-5.48,6.3,0,.85,.11,3.75,.11,3.75,.04,.89,.1,1.86,.16,2.85"
             id="path42" />
        </g>
        <path
           class="cls-3"
           d="M106.39,9.9C53.07,9.9,9.85,53.12,9.85,106.43s43.22,96.53,96.53,96.53,96.53-43.22,96.53-96.53S159.7,9.9,106.39,9.9Zm59.39,34.98c2.4,0,4.34,1.94,4.34,4.34s-1.94,4.34-4.34,4.34-4.34-1.94-4.34-4.34,1.94-4.34,4.34-4.34Zm-119.28,1.25c2.4,0,4.34,1.94,4.34,4.34s-1.94,4.34-4.34,4.34-4.34-1.94-4.34-4.34,1.94-4.34,4.34-4.34Zm61.28,127c-36.84,0-66.7-29.86-66.7-66.7S70.94,39.73,107.78,39.73s66.7,29.86,66.7,66.7-29.86,66.7-66.7,66.7Z"
           id="path46" />
        <g
           id="g90">
          <path
             class="cls-1"
             d="M81.91,179.92l.63,1.35,.5-.23c.21-.1,.43-.2,.66-.32,.21-.11,.41-.2,.6-.27,.03-.01,.06-.03,.09-.04,0,.13,.02,.32,.02,.58v10.94c0,.42-.02,.75-.05,.99-.02,.15-.06,.26-.12,.32-.05,.05-.16,.1-.3,.12-.24,.04-.59,.07-1.02,.09l-.54,.02v1.52h5.08v-17.25h-1.09l-4.45,2.18Z"
             id="path48" />
          <path
             class="cls-1"
             d="M101.54,180.22c-.46-.71-1.05-1.29-1.74-1.75-.72-.47-1.57-.71-2.54-.71-.84,0-1.61,.19-2.29,.56-.67,.36-1.25,.84-1.72,1.41-.47,.57-.84,1.23-1.1,1.97-.26,.73-.39,1.48-.39,2.23,0,.64,.1,1.28,.29,1.9,.2,.63,.49,1.19,.87,1.68,.39,.5,.87,.9,1.44,1.21h0c.69,.38,1.5,.54,2.42,.43,1.62-.48,2.2-2.63,2.2-2.63l.04-.02c-.27,.17-.56,.32-.84,.43-.7,.28-1.39,.17-1.86-.22-.35-.28-.63-.64-.85-1.07-.23-.45-.4-.93-.51-1.45-.11-.52-.17-1-.17-1.42s.05-.85,.15-1.3c.1-.42,.25-.81,.47-1.16,.2-.33,.46-.6,.78-.81,.29-.19,.64-.29,1.05-.29,.27,0,.5,.07,.7,.2,.23,.16,.44,.36,.6,.61,.18,.27,.33,.59,.45,.94,.13,.38,.23,.77,.3,1.15,.08,.39,.13,.76,.16,1.13,.03,.37,.05,.7,.05,.97,0,.49-.02,.9-.05,1.23-.02,.26-.06,.54-.12,.85,.02,.21-.57,2.15-.57,2.15-.08,.22-.18,.44-.28,.65-.4,.86-.9,1.64-1.49,2.33-.59,.68-1.27,1.25-2.03,1.7-.74,.43-1.53,.66-2.35,.69l-.54,.02v1.52h1.06c1.32,0,2.6-.3,3.78-.89,1.17-.59,2.21-1.37,3.09-2.34,.87-.97,1.58-2.08,2.08-3.33,.51-1.25,.77-2.56,.77-3.9,0-.76-.11-1.56-.32-2.37-.21-.83-.55-1.6-1-2.29Z"
             id="path50" />
          <path
             class="cls-1"
             d="M129.54,180.22c-.46-.71-1.05-1.29-1.74-1.75-.72-.47-1.57-.71-2.54-.71-.84,0-1.61,.19-2.29,.56-.67,.36-1.25,.84-1.72,1.41-.47,.57-.84,1.23-1.1,1.97-.26,.73-.39,1.48-.39,2.23,0,.64,.1,1.28,.29,1.9,.2,.63,.49,1.19,.87,1.68,.39,.5,.87,.9,1.44,1.21h0c.69,.38,1.5,.54,2.42,.43,1.62-.48,2.2-2.63,2.2-2.63l.04-.02c-.27,.17-.56,.32-.84,.43-.7,.28-1.39,.17-1.86-.22-.35-.28-.63-.64-.85-1.07-.23-.45-.4-.93-.51-1.45-.11-.52-.17-1-.17-1.42s.05-.85,.15-1.3c.1-.42,.25-.81,.47-1.16,.2-.33,.46-.6,.78-.81,.29-.19,.64-.29,1.05-.29,.27,0,.5,.07,.7,.2,.23,.16,.44,.36,.6,.61,.18,.27,.33,.59,.45,.94,.13,.38,.23,.77,.3,1.15,.08,.39,.13,.76,.16,1.13,.03,.37,.05,.7,.05,.97,0,.49-.02,.9-.05,1.23-.02,.26-.06,.54-.12,.85,.02,.21-.57,2.15-.57,2.15-.08,.22-.18,.44-.28,.65-.4,.86-.9,1.64-1.49,2.33-.59,.68-1.27,1.25-2.03,1.7-.74,.43-1.53,.66-2.35,.69l-.54,.02v1.52h1.06c1.32,0,2.6-.3,3.78-.89,1.17-.59,2.21-1.37,3.09-2.34,.87-.97,1.58-2.08,2.08-3.33,.51-1.25,.77-2.56,.77-3.9,0-.76-.11-1.56-.32-2.37-.21-.83-.55-1.6-1-2.29Z"
             id="path52" />
          <path
             class="cls-1"
             d="M114.09,187.21c-.44-.47-.91-.91-1.4-1.32-.32-.26-.62-.51-.91-.75l-.36-.3s-.04-.03-.06-.05c-.32-.26-.66-.52-1.02-.8-.33-.26-.65-.54-.95-.84-.27-.28-.5-.59-.67-.91-.16-.29-.23-.62-.23-.99,0-.27,.06-.51,.17-.75,.12-.25,.28-.48,.48-.67,.19-.19,.41-.34,.66-.46,.24-.11,.47-.16,.71-.16,.32,0,.63,.07,.93,.2,.31,.14,.59,.33,.82,.57,.24,.24,.43,.51,.57,.82,.14,.3,.2,.62,.2,.93s-.03,.57-.08,.76c-.05,.19-.12,.36-.19,.48l-.61,1.53s1.16,.23,2.2-.51c.04-.03,.08-.06,.11-.09,.28-.25,.5-.57,.66-.93,.17-.37,.26-.79,.26-1.25,0-.49-.11-.99-.34-1.48-.22-.48-.55-.92-.97-1.29-.42-.37-.93-.67-1.52-.89-1.06-.39-2.52-.47-3.79-.05-.57,.19-1.09,.46-1.53,.82-.46,.37-.83,.82-1.1,1.35-.28,.54-.42,1.15-.42,1.83,0,.6,.1,1.14,.29,1.62,.19,.46,.44,.89,.75,1.28,.29,.36,.63,.71,1.01,1.04,.18,.16,.37,.32,.55,.48-.19,.15-.38,.3-.57,.46-.4,.33-.77,.7-1.09,1.09-.33,.4-.61,.84-.82,1.31-.22,.49-.34,1.03-.34,1.6,0,.32,.07,.71,.23,1.2,.16,.51,.43,1,.82,1.47,.39,.47,.91,.88,1.55,1.22,.66,.35,1.5,.53,2.49,.53,.66,0,1.31-.11,1.92-.32,.61-.21,1.16-.52,1.63-.91,.48-.4,.87-.89,1.16-1.47,.29-.59,.44-1.25,.44-1.97,0-.67-.17-1.3-.5-1.9-.31-.55-.69-1.07-1.14-1.55Zm-1.34,5.27c-.15,.28-.33,.52-.56,.73-.22,.21-.47,.37-.76,.49-.68,.28-1.34,.21-1.86-.08-.32-.18-.59-.41-.82-.7-.23-.29-.41-.62-.53-1-.12-.38-.19-.78-.19-1.18,0-.64,.19-1.24,.59-1.83h0c.33-.49,.7-.92,1.11-1.29,.54,.45,1.01,.85,1.4,1.21,.46,.42,.83,.8,1.1,1.15,.26,.33,.44,.63,.55,.91,.1,.26,.15,.53,.15,.79,0,.29-.06,.55-.2,.8Z"
             id="path54" />
          <path
             class="cls-1"
             d="M28.36,134.24l5.29-7.21-1.37-4.18-1.29,.42,.11,.46c.09,.4,.13,.77,.11,1.08-.02,.31-.08,.61-.19,.89-.11,.29-.25,.57-.44,.85-.2,.3-.43,.62-.69,.96l-2.23,3.05c-.14-.18-.28-.36-.44-.53-.34-.36-.72-.66-1.13-.89-.42-.23-.88-.38-1.36-.45-.5-.07-1.02,0-1.56,.17-.33,.11-.69,.3-1.08,.56-.41,.28-.76,.68-1.05,1.19-.28,.5-.45,1.13-.5,1.86-.05,.73,.09,1.6,.42,2.61l1.99,6.07,1.34-.44-.16-.49c-.17-.51-.21-.8-.22-.95-.01-.21,.05-.29,.07-.32,.07-.1,.2-.18,.38-.25,.26-.1,.58-.22,.97-.35l10.88-3.57-.92-2.81-6.92,2.27Zm-3.97,1.3c-.45,.15-.72,.16-.86,.14-.23-.03-.34-.09-.4-.13-.09-.08-.16-.16-.21-.26-.07-.16-.13-.3-.17-.42-.11-.32-.15-.64-.12-.93,.02-.29,.1-.57,.24-.82,.13-.25,.32-.47,.55-.66,.24-.19,.53-.34,.86-.45,.34-.11,.65-.17,.92-.17,.1,0,.19,0,.28,.02,.35,.06,.64,.17,.9,.35,.26,.18,.48,.43,.66,.73,.2,.33,.36,.68,.48,1.04l.16,.48-3.29,1.08Z"
             id="path56" />
          <path
             class="cls-1"
             d="M31.6,117.14l-1.36,.16,.02,.48c0,.18,0,.35,0,.52,0,.15-.02,.28-.05,.39-.02,.08-.05,.14-.1,.18,0,0-.03,.02-.11,.03-.08,0-.23,0-.5-.08-.29-.08-.53-.15-.7-.2l-1.65-.48-.53-4.53,4.3-2.33-.34-2.89-14.1,7.54,.12,1.05,15.53,4.79-.54-4.66Zm-10.07-.67l3.42-1.94,.36,3.07-3.77-1.13Z"
             id="path58" />
          <path
             class="cls-1"
             d="M20.7,105.34l-.41-.11c-.93-.25-1.35-.52-1.53-.69-.45-.44-.64-1.18-.56-2.19l.29-4.09,11.07,9.21,1.05,.08,.86-11.94-4.54-1.15-.1,1.35,.33,.15c.45,.2,.83,.4,1.14,.6,.26,.17,.46,.4,.62,.7,.17,.32,.28,.76,.33,1.31,.05,.59,.05,1.39-.03,2.39l-.17,2.35-12.04-9.8-.9,12.51,4.48,.85,.11-1.54Z"
             id="path60" />
          <path
             class="cls-1"
             d="M19.52,90.25c.5,.77,1.15,1.46,1.95,2.03,.8,.57,1.73,1,2.79,1.26,.69,.17,1.37,.26,2.03,.26,.35,0,.69-.02,1.02-.07,.97-.14,1.87-.43,2.67-.89,.8-.46,1.5-1.07,2.06-1.82,.56-.75,.97-1.61,1.21-2.57h0c.24-.96,.28-1.91,.13-2.84-.15-.93-.48-1.79-.98-2.57-.49-.77-1.15-1.45-1.95-2.03-.8-.57-1.74-1-2.79-1.26-1.05-.26-2.08-.32-3.05-.19-.97,.14-1.87,.43-2.67,.89-.8,.46-1.5,1.07-2.06,1.82-.57,.75-.97,1.61-1.21,2.57-.24,.96-.28,1.91-.13,2.84,.15,.93,.48,1.79,.98,2.57Zm.84-4.99h0c.14-.58,.4-1.09,.76-1.53,.36-.44,.82-.8,1.37-1.05,.56-.26,1.23-.42,1.98-.47,.13,0,.26-.01,.4-.01,.66,0,1.37,.09,2.12,.28,.91,.23,1.7,.54,2.36,.94,.64,.39,1.16,.84,1.53,1.34,.37,.48,.61,1.01,.72,1.57,.11,.56,.1,1.14-.04,1.71-.14,.58-.4,1.09-.76,1.53-.36,.44-.82,.8-1.37,1.05-.56,.26-1.23,.42-1.98,.47-.76,.05-1.61-.04-2.52-.27-.91-.23-1.71-.54-2.36-.94-.64-.39-1.16-.84-1.53-1.34-.37-.48-.61-1.01-.72-1.57-.11-.56-.1-1.14,.04-1.71Z"
             id="path62" />
          <path
             class="cls-1"
             d="M73.02,22.95l.54,10.67-7.89-7.29-3.66,1.69,.57,1.24,.45-.16c.22-.08,.41-.11,.58-.08,.19,.02,.38,.08,.55,.17,.19,.1,.38,.22,.57,.38,.21,.17,.41,.35,.62,.53l9.33,8.47,.96-.44-.71-16.05-1.91,.88Z"
             id="path64" />
          <path
             class="cls-1"
             d="M89.58,28.55v.39c-.01,.46-.05,.87-.1,1.21-.05,.3-.13,.55-.26,.76-.11,.2-.27,.35-.47,.48-.23,.14-.53,.27-.92,.37l-1.5,.4c-.6,.16-.95,.15-1.13,.11-.25-.05-.44-.15-.57-.27-.15-.15-.25-.31-.31-.49-.09-.24-.15-.46-.2-.65l-.8-2.99,3.15-.84c.24-.06,.43-.1,.59-.09,.09,0,.12,.03,.14,.06,.03,.04,.12,.15,.2,.47l.13,.5,1.36-.36-1-3.73-1.36,.36,.13,.5c.05,.19,.03,.26,.02,.26-.01,.03-.06,.07-.12,.1-.14,.08-.34,.15-.59,.22l-3.13,.84-1.11-4.17,2.84-.76c.44-.12,.81-.2,1.11-.24,.24-.03,.44-.02,.61,.04,.16,.06,.31,.17,.45,.34,.17,.22,.37,.55,.58,.99l.19,.39,1.34-.36-1.27-3.8-11,2.94,.36,1.36,.5-.13c.52-.14,.81-.17,.96-.17,.18,0,.28,.06,.31,.08,.09,.08,.17,.21,.23,.39,.09,.26,.19,.59,.29,.98l2.96,11.07,9.18-2.45-.24-4.52-1.55,.42Z"
             id="path66" />
          <path
             class="cls-1"
             d="M92.19,19.87c.05,.27,.09,.61,.13,1.02l1.11,11.4,2.95-.29-.71-7.24,5.88,6.74,4.38-.43-.13-1.36h-.48c-.41,0-.77-.03-1.08-.12-.3-.09-.58-.21-.83-.38-.26-.17-.51-.38-.74-.62-.25-.26-.51-.55-.79-.88l-2.49-2.84c.21-.09,.41-.2,.61-.31,.43-.25,.8-.56,1.12-.91,.32-.36,.56-.78,.73-1.23,.17-.47,.23-.99,.18-1.56-.03-.35-.14-.73-.31-1.17-.18-.46-.5-.89-.93-1.28-.43-.38-1-.68-1.71-.9-.7-.21-1.58-.27-2.64-.16l-6.35,.62,.14,1.4,.52-.05c.53-.05,.83-.03,.97,0,.21,.03,.27,.11,.29,.13,.08,.09,.13,.23,.17,.42Zm3.12-.14c.08-.22,.16-.32,.21-.36,.1-.08,.2-.12,.31-.15,.17-.03,.32-.06,.45-.07,.09,0,.18-.01,.27-.01,.24,0,.45,.03,.66,.1,.29,.09,.53,.22,.75,.41,.22,.19,.39,.41,.52,.69,.13,.28,.22,.59,.25,.93,.05,.48,0,.89-.12,1.21-.13,.32-.31,.59-.54,.8-.24,.21-.52,.38-.86,.49-.37,.12-.74,.2-1.12,.24l-.5,.05-.34-3.45c-.05-.48,0-.74,.05-.87Z"
             id="path68" />
          <path
             class="cls-1"
             d="M121.03,25.15c.05-.57,.05-1.15,0-1.73-.06-.58-.19-1.14-.38-1.68-.19-.54-.45-1.06-.77-1.54-.32-.49-.73-.93-1.2-1.32-.4-.32-.85-.6-1.35-.82-.48-.21-.98-.38-1.49-.5-.5-.12-1.01-.21-1.51-.28-.5-.07-.98-.13-1.45-.17l-5.72-.55-.14,1.4,.52,.05c.53,.05,.82,.13,.96,.18,.2,.07,.25,.16,.26,.19,.06,.11,.09,.26,.08,.45,0,.28-.03,.62-.07,1.02l-1.1,11.4,4.87,.47c.38,.04,.75,.06,1.11,.06,.85,0,1.62-.1,2.33-.3,1.01-.29,1.89-.75,2.61-1.36,.72-.61,1.3-1.35,1.71-2.21,.4-.85,.65-1.77,.75-2.74Zm-3.32-.26c-.07,.76-.25,1.47-.53,2.12-.27,.64-.64,1.2-1.09,1.65-.44,.45-.98,.79-1.6,1.02-.62,.23-1.33,.3-2.12,.23-.33-.03-.66-.09-.98-.16-.2-.05-.4-.1-.6-.16l.82-8.49c.06-.63,.19-1.1,.39-1.39,.2-.29,.4-.49,.59-.6,.2-.11,.48-.17,.76-.18,.8,.08,1.5,.29,2.08,.62,.58,.34,1.05,.77,1.41,1.29,.36,.53,.62,1.14,.76,1.83,.15,.7,.19,1.45,.11,2.21Z"
             id="path70" />
          <path
             class="cls-1"
             d="M129.39,19.65l-10.2,12.65,4.53,1.22,.35-1.32-.46-.16c-.17-.06-.33-.12-.49-.19-.13-.06-.25-.12-.34-.2-.06-.05-.11-.1-.14-.16,0,0,0-.03,.01-.11,.02-.06,.07-.21,.26-.44,.19-.24,.34-.44,.45-.58l1.05-1.35,4.4,1.19,.57,4.85,2.81,.76-1.78-15.89-1.02-.28Zm-3.77,7.85l2.45-3.08,.53,3.89-2.98-.81Z"
             id="path72" />
          <path
             class="cls-1"
             d="M147.86,28.51c-.27-.44-.6-.85-.99-1.23-.38-.37-.79-.7-1.23-.99-.42-.28-.87-.54-1.32-.79-.45-.24-.88-.46-1.31-.66l-5.19-2.48-.61,1.27,.47,.22c.48,.23,.72,.4,.84,.5,.11,.09,.17,.18,.18,.27,.02,.12,0,.27-.08,.45-.1,.26-.24,.57-.42,.94l-4.95,10.33,4.41,2.11c1.16,.56,2.28,.87,3.31,.95,.19,.01,.38,.02,.57,.02,.83,0,1.62-.13,2.35-.4,.89-.32,1.68-.83,2.36-1.49,.67-.65,1.22-1.44,1.64-2.32,.25-.52,.45-1.07,.59-1.63,.14-.56,.21-1.14,.22-1.71,0-.57-.06-1.15-.2-1.71-.14-.57-.36-1.12-.67-1.65Zm-2.31,3.2c-.1,.71-.32,1.42-.66,2.12-.33,.68-.74,1.29-1.22,1.81-.48,.51-1.01,.9-1.59,1.18-.57,.27-1.2,.41-1.86,.41h0c-.66,0-1.35-.17-2.06-.51-.3-.14-.59-.31-.87-.49-.17-.11-.34-.23-.51-.35l3.68-7.69c.27-.57,.56-.96,.84-1.17,.29-.21,.54-.33,.76-.36,.23-.03,.51,0,.77,.09,.73,.35,1.31,.79,1.74,1.3,.43,.52,.72,1.09,.88,1.7,.16,.62,.19,1.28,.09,1.98Z"
             id="path74" />
          <path
             class="cls-1"
             d="M189.98,74.94l-10.67,.36,7.41-7.77-1.62-3.69-1.25,.55,.15,.45c.08,.22,.1,.42,.08,.59-.03,.2-.09,.38-.18,.55-.1,.19-.23,.38-.38,.56-.18,.21-.36,.41-.54,.61l-8.63,9.19,.43,.97,16.06-.44-.85-1.93Z"
             id="path76" />
          <rect
             class="cls-1"
             x="177.37"
             y="80.81"
             width="14.57"
             height="2.96"
             transform="translate(-16.01 57.77) rotate(-17.05)"
             id="rect78" />
          <path
             class="cls-1"
             d="M191.51,84.04c.1,.52,.1,.82,.09,.97-.01,.14-.05,.24-.11,.3-.09,.09-.22,.15-.41,.2-.27,.07-.6,.14-1,.21l-11.27,2.07,.53,2.91,7.16-1.31-6.22,6.43,.79,4.33,1.34-.25-.04-.47c-.04-.41-.03-.77,.04-1.08,.06-.31,.17-.6,.31-.86,.15-.27,.33-.54,.55-.79,.24-.27,.51-.56,.81-.86l2.62-2.72c.11,.2,.23,.4,.36,.58,.28,.41,.62,.76,1,1.04,.39,.29,.82,.5,1.29,.63,.48,.13,1.01,.15,1.57,.05,.34-.06,.72-.2,1.14-.41,.45-.22,.85-.57,1.2-1.04,.34-.46,.6-1.06,.75-1.78,.15-.71,.13-1.6-.06-2.64l-1.15-6.28-1.38,.25,.09,.51Zm.53,5.05c.05,.16,.09,.31,.11,.44,.06,.33,.06,.65,0,.94-.06,.29-.18,.55-.35,.78-.17,.23-.38,.42-.64,.58-.26,.16-.57,.27-.91,.33-.48,.09-.88,.08-1.22-.02-.33-.1-.61-.26-.84-.47-.23-.22-.42-.49-.56-.81-.15-.35-.27-.72-.33-1.1l-.09-.5,3.41-.63c.47-.09,.73-.06,.87-.02,.22,.06,.33,.13,.38,.19,.08,.09,.14,.18,.17,.29Z"
             id="path80" />
          <path
             class="cls-1"
             d="M190.92,99.8l.42,.08c1.36,.25,1.73,.56,1.83,.69,.18,.22,.4,.75,.42,1.98v.63s-12.66,.26-12.66,.26l.06,3.08,12.67-.26v.61c.04,1.43-.2,1.87-.32,2.01-.1,.13-.47,.45-1.82,.78l-.41,.1,.03,1.45,4.51-.25-.25-12.53-4.52-.07,.03,1.45Z"
             id="path82" />
          <path
             class="cls-1"
             d="M194.09,113.54c-.08,.53-.17,.81-.23,.95-.05,.13-.12,.21-.2,.25-.11,.05-.26,.07-.45,.06-.28-.02-.62-.06-1.02-.13l-6.02-.92c-.7-.11-1.39-.13-2.06-.08-.71,.05-1.37,.26-1.97,.61-.6,.35-1.12,.89-1.55,1.59-.42,.69-.72,1.61-.89,2.75-.17,1.12-.14,2.09,.09,2.87,.23,.79,.6,1.45,1.08,1.97,.48,.51,1.06,.91,1.72,1.17,.63,.25,1.27,.42,1.91,.52l9.01,1.37,.33-1.89-8.06-1.23c-.27-.04-.56-.09-.88-.14-.31-.05-.61-.12-.91-.21-.29-.08-.57-.19-.85-.31-.25-.11-.46-.25-.63-.4-.43-.41-.71-.9-.85-1.5-.15-.62-.18-1.24-.09-1.83,.05-.3,.12-.59,.23-.86,.1-.26,.24-.5,.41-.71,.17-.21,.37-.39,.6-.54,.22-.14,.47-.24,.77-.3,.14-.03,.34-.04,.55-.04,.25,0,.51,.02,.79,.04,.28,.02,.55,.05,.8,.08,.26,.03,.49,.06,.69,.09l8.41,1.28,.73-4.82-1.39-.21-.08,.51Z"
             id="path84" />
          <path
             class="cls-1"
             d="M191.57,128.84c-.18,.51-.32,.76-.4,.89-.12,.17-.21,.2-.24,.21-.12,.03-.27,.02-.45-.03-.27-.07-.59-.18-.98-.31l-10.82-3.76-1.61,4.62c-.42,1.21-.61,2.36-.57,3.4,.04,1.05,.28,2.01,.7,2.86,.42,.85,1.01,1.58,1.74,2.18,.72,.59,1.56,1.05,2.49,1.37,.55,.19,1.11,.32,1.68,.4,.33,.04,.66,.07,.99,.07,.25,0,.49-.01,.73-.04,.57-.06,1.13-.19,1.68-.39,.55-.2,1.07-.49,1.57-.86,.41-.32,.78-.69,1.11-1.12,.32-.41,.6-.86,.84-1.33,.23-.45,.44-.92,.63-1.4,.19-.47,.36-.93,.51-1.37l1.89-5.43-1.33-.46-.17,.49Zm-2.28,5.44c-.26,.76-.63,1.39-1.1,1.88-.46,.48-1,.84-1.59,1.06-.6,.23-1.26,.34-1.95,.31-.72-.02-1.45-.16-2.18-.41-.72-.25-1.37-.59-1.94-1.02-.56-.42-1.01-.91-1.35-1.45-.33-.54-.54-1.14-.61-1.8-.08-.65,.02-1.36,.28-2.11,.11-.31,.24-.62,.39-.91,.09-.18,.19-.37,.3-.55l8.06,2.8c.6,.21,1.02,.44,1.26,.71,.24,.26,.39,.5,.44,.72,.06,.22,.05,.5,0,.78Z"
             id="path86" />
          <path
             class="cls-1"
             d="M27.69,64.72l.32-.79,.12-.26-1.06-.46-.85,1.94-.7,1.51,8,3.52-10.69,2.97-.13,.04-.06,.13h0s-.77,1.75-.77,1.75l13.37,5.88,.93-2.11-6.5-2.88-1.97-.85,11.7-3.28,.13-.04,.52-1.19-12.02-5.29s-.5-.18-.32-.6Z"
             id="path88" />
        </g>
      </g>
      <g
         id="g198"
         style="fill:#ffffff;fill-opacity:1">
        <rect
           class="cls-3"
           x="228.3"
           y="140.05"
           width="463.26"
           height="1.86"
           id="rect94"
           style="fill:#ffffff;fill-opacity:1" />
        <g
           id="g118"
           style="fill:#ffffff;fill-opacity:1">
          <path
             class="cls-3"
             d="M256.63,60.76c0,1.49-.17,3-.52,4.51-.35,1.5-.99,2.87-1.93,4.08-.95,1.21-2.24,2.2-3.89,2.96-1.65,.76-3.76,1.15-6.34,1.15s-4.82-.35-6.47-1.05c-1.67-.7-2.97-1.63-3.91-2.79-.95-1.16-1.59-2.5-1.94-4.01-.35-1.5-.52-3.07-.52-4.7v-14.84c0-1.02-.02-1.89-.08-2.58-.05-.7-.23-1.26-.53-1.69-.29-.44-.76-.74-1.39-.9-.63-.17-1.52-.25-2.69-.25v-.9h9.36v19.46c0,.5,.01,1.07,.02,1.72,.02,.65,.05,1.32,.1,2.02,.05,.7,.12,1.36,.2,1.99,.07,.63,.21,1.16,.37,1.59,.3,.83,.71,1.55,1.24,2.14,.54,.59,1.13,1.09,1.81,1.49,.68,.4,1.42,.69,2.22,.88,.8,.18,1.61,.28,2.43,.28,1.63,0,3.25-.33,4.86-.97,1.61-.65,2.9-1.67,3.86-3.07,.4-.59,.71-1.27,.92-2.04,.21-.76,.37-1.54,.47-2.34,.11-.79,.16-1.6,.18-2.38,.02-.81,.03-1.54,.03-2.19v-18.57l2.13,.05v20.96Z"
             id="path96"
             style="fill:#ffffff;fill-opacity:1" />
          <path
             class="cls-3"
             d="M300,39.75h4.67v32.95h-4.67V39.75Z"
             id="path98"
             style="fill:#ffffff;fill-opacity:1" />
          <path
             class="cls-3"
             d="M328.47,73.46h-.9l-11.69-27.48c-.26-.63-.55-1.25-.85-1.86-.3-.62-.64-1.17-1.02-1.64-.38-.48-.84-.9-1.38-1.22-.53-.33-1.18-.53-1.94-.59v-.9h7.72l10.9,26.23,10.5-26.23h2.39l-13.73,33.71Z"
             id="path100"
             style="fill:#ffffff;fill-opacity:1" />
          <path
             class="cls-3"
             d="M353.4,54.59h9.16c.72,0,1.33-.06,1.81-.18,.48-.12,.85-.34,1.07-.65,.23-.3,.35-.76,.35-1.36h.89v6.86h-.89c0-.8-.11-1.4-.33-1.82-.21-.41-.55-.69-1.05-.84-.48-.15-1.08-.23-1.81-.23h-9.21v8.81c0,.5,.03,1.08,.08,1.75,.04,.66,.25,1.28,.6,1.89,.35,.59,.91,1.08,1.69,1.48,.78,.4,1.88,.6,3.31,.6h3.78c1.1,0,2.01-.11,2.75-.35,.75-.24,1.39-.62,1.92-1.15,.53-.53,.98-1.2,1.35-2.01,.37-.82,.71-1.8,1.04-2.97h1.4l-1.74,8.27h-20.86v-26.63c0-1.02-.02-1.89-.07-2.58-.05-.7-.22-1.26-.53-1.69-.3-.44-.76-.74-1.39-.9-.63-.17-1.52-.25-2.68-.25v-.9h25.28l.44,7.21h-.99c-.24-1.25-.5-2.24-.82-2.96-.31-.71-.74-1.25-1.27-1.62-.53-.36-1.19-.59-1.96-.69-.78-.11-1.76-.16-2.92-.16h-8.41v13.05Z"
             id="path102"
             style="fill:#ffffff;fill-opacity:1" />
          <path
             class="cls-3"
             d="M378.34,46.07c0-1.02-.03-1.89-.08-2.58-.05-.7-.22-1.26-.52-1.69-.29-.44-.76-.74-1.39-.9-.63-.17-1.53-.25-2.69-.25v-.9h14.28c2.42,0,4.38,.31,5.88,.93,1.49,.61,2.65,1.36,3.48,2.25,.83,.9,1.39,1.84,1.67,2.82,.27,.98,.42,1.83,.42,2.56,0,1.19-.22,2.26-.68,3.18-.45,.93-1.05,1.74-1.79,2.44-.75,.7-1.61,1.27-2.59,1.72-.98,.44-2.02,.78-3.11,1.01l6.42,8.96c.6,.87,1.18,1.66,1.75,2.37,.56,.72,1.18,1.34,1.84,1.87,.65,.53,1.41,.96,2.24,1.29,.83,.34,1.81,.55,2.94,.65v.9h-8.82l-12.09-16.92c1.03,0,2.05-.12,3.06-.35,1.02-.24,1.91-.63,2.66-1.2,.77-.56,1.39-1.3,1.87-2.24,.47-.92,.72-2.09,.72-3.49,0-.98-.16-1.91-.48-2.76-.31-.84-.77-1.58-1.36-2.22-.6-.62-1.32-1.11-2.15-1.46-.83-.35-1.74-.53-2.74-.53-.37,0-.78,.02-1.24,.08-.46,.05-.9,.2-1.32,.47-.42,.27-.77,.71-1.07,1.35-.3,.63-.45,1.51-.45,2.63v26.63h-4.68v-26.63Z"
             id="path104"
             style="fill:#ffffff;fill-opacity:1" />
          <path
             class="cls-3"
             d="M409.35,62.15c.2,1.99,.68,3.6,1.45,4.82,.76,1.23,1.63,2.18,2.61,2.84,.98,.66,1.99,1.12,3.04,1.35,1.04,.24,1.93,.35,2.66,.35,.83,0,1.65-.11,2.44-.33,.8-.21,1.5-.54,2.12-.99,.6-.46,1.1-1.01,1.47-1.69,.36-.68,.54-1.47,.54-2.37,0-1.26-.43-2.36-1.27-3.31-.85-.94-1.92-1.82-3.21-2.64-1.3-.81-2.68-1.61-4.16-2.39-1.48-.78-2.86-1.64-4.16-2.58-1.28-.95-2.36-2.01-3.2-3.22-.86-1.19-1.27-2.61-1.27-4.27,0-1.27,.25-2.42,.74-3.49,.5-1.06,1.18-1.97,2.06-2.76,.89-.78,1.9-1.38,3.04-1.82,1.14-.42,2.36-.64,3.65-.64,.9,0,1.72,.1,2.47,.3,.75,.2,1.41,.43,2.02,.65,.3,.14,.64,.35,1.04,.65,.4,.3,.83,.57,1.32,.83,.48,.24,.98,.4,1.51,.47,.54,.07,1.1-.09,1.7-.49l-.15,9.01h-.9c-.1-1.3-.37-2.52-.82-3.69-.45-1.15-1.07-2.15-1.86-3.01-.8-.84-1.75-1.52-2.84-2.01-1.1-.5-2.33-.75-3.69-.75-.7,0-1.39,.11-2.09,.38-.69,.24-1.32,.61-1.83,1.06-.53,.46-.96,1.01-1.3,1.65-.34,.63-.5,1.3-.5,2.04,0,1.16,.45,2.19,1.37,3.06,.91,.88,2.04,1.71,3.38,2.49,1.35,.77,2.82,1.55,4.41,2.31,1.59,.76,3.05,1.62,4.4,2.56,1.34,.94,2.47,2.02,3.39,3.21,.91,1.2,1.37,2.6,1.37,4.23,0,1.3-.25,2.51-.77,3.66-.52,1.15-1.25,2.16-2.19,3.04-.95,.89-2.08,1.56-3.39,2.06-1.3,.5-2.76,.75-4.35,.75-1.17,0-2.15-.1-2.99-.31-.83-.19-1.58-.41-2.24-.64-.33-.13-.65-.3-.95-.52-.3-.21-.65-.42-1.07-.62-.42-.2-.94-.37-1.55-.52-.62-.15-1.41-.22-2.37-.22v-8.46h.9Z"
             id="path106"
             style="fill:#ffffff;fill-opacity:1" />
          <path
             class="cls-3"
             d="M437.97,39.75h4.68v32.95h-4.68V39.75Z"
             id="path108"
             style="fill:#ffffff;fill-opacity:1" />
          <path
             class="cls-3"
             d="M454.24,46.07c0-1.02-.03-1.89-.08-2.58-.05-.7-.22-1.26-.53-1.69-.29-.44-.76-.74-1.39-.9-.63-.17-1.54-.25-2.69-.25v-.9h12.75c1.13,0,2.29,.03,3.51,.07,1.21,.05,2.41,.17,3.61,.33,1.19,.17,2.36,.45,3.5,.82,1.14,.38,2.2,.89,3.17,1.52,1.12,.76,2.09,1.65,2.93,2.67,.83,1,1.51,2.1,2.07,3.28,.54,1.18,.95,2.41,1.22,3.71,.26,1.29,.4,2.6,.4,3.94,0,2.25-.37,4.38-1.11,6.39-.73,2.01-1.84,3.78-3.34,5.3-1.49,1.53-3.35,2.73-5.57,3.61-2.23,.88-4.83,1.32-7.81,1.32h-10.65v-26.63Zm4.68,24.19c.86,.21,1.73,.36,2.59,.47,.86,.12,1.72,.17,2.58,.17,2.12,0,4-.4,5.63-1.18,1.62-.77,2.98-1.84,4.08-3.18,1.09-1.34,1.92-2.9,2.49-4.68,.57-1.78,.85-3.66,.85-5.64s-.29-3.93-.85-5.73c-.56-1.79-1.4-3.35-2.51-4.67-1.12-1.33-2.51-2.38-4.16-3.14-1.66-.75-3.57-1.14-5.72-1.14-1.03,.13-1.86,.4-2.49,.82-.63,.42-1.2,1.09-1.73,2.04-.51,.94-.76,2.3-.76,4.05v21.81Z"
             id="path110"
             style="fill:#ffffff;fill-opacity:1" />
          <path
             class="cls-3"
             d="M518.5,46.07c0-1.02-.02-1.89-.07-2.58-.06-.7-.22-1.26-.53-1.69-.29-.44-.76-.74-1.39-.9-.63-.17-1.53-.25-2.69-.25v-.9h12.74c1.13,0,2.3,.03,3.51,.07,1.21,.05,2.42,.17,3.61,.33,1.19,.17,2.36,.45,3.51,.82,1.15,.38,2.19,.89,3.16,1.52,1.13,.76,2.11,1.65,2.94,2.67,.83,1,1.52,2.1,2.07,3.28,.54,1.18,.95,2.41,1.21,3.71,.27,1.29,.41,2.6,.41,3.94,0,2.25-.37,4.38-1.1,6.39-.72,2.01-1.84,3.78-3.33,5.3-1.49,1.53-3.36,2.73-5.57,3.61-2.22,.88-4.83,1.32-7.81,1.32h-10.66v-26.63Zm4.68,24.19c.87,.21,1.72,.36,2.59,.47,.86,.12,1.72,.17,2.59,.17,2.11,0,4-.4,5.62-1.18,1.62-.77,2.99-1.84,4.08-3.18,1.1-1.34,1.92-2.9,2.49-4.68,.56-1.78,.85-3.66,.85-5.64s-.29-3.93-.85-5.73c-.57-1.79-1.4-3.35-2.51-4.67-1.12-1.33-2.51-2.38-4.16-3.14-1.67-.75-3.57-1.14-5.73-1.14-1.03,.13-1.86,.4-2.49,.82-.63,.42-1.2,1.09-1.71,2.04-.51,.94-.77,2.3-.77,4.05v21.81Z"
             id="path112"
             style="fill:#ffffff;fill-opacity:1" />
          <path
             class="cls-3"
             d="M288.82,39.69h0s-2.14-.01-2.14-.01v24.69h-.1l-.2-.25v-.02l-19.86-24.38h-.01v-.03h-2.46v33.02h1.84v.02h.34v-25.36l-.03-.04v-.59h.11l21.64,26.52h.58v.02h.94v-27.96c0-.91,.02-1.68,.07-2.29,.05-.62,.2-1.12,.47-1.5,.26-.39,.68-.66,1.23-.8,.56-.16,.98-.22,2.02-.22v-.8h-4.43Z"
             id="path114"
             style="fill:#ffffff;fill-opacity:1" />
          <path
             class="cls-3"
             d="M500.32,39.01h-.9l-14.83,33.7h8.21v-.9c-.46-.04-.92-.09-1.37-.15-.45-.07-.85-.18-1.22-.32-.37-.15-.67-.36-.9-.63-.22-.26-.34-.63-.34-1.09s.14-1.03,.43-1.7c.21-.5,.38-.92,.53-1.3h-.01l.19-.43,1.91-4.53h12.78l4.43,11.05h4.37l-13.29-33.7Zm-7.53,20.84l5.74-13.28,5.62,13.28h-11.36Z"
             id="path116"
             style="fill:#ffffff;fill-opacity:1" />
        </g>
        <g
           id="g144"
           style="fill:#ffffff;fill-opacity:1">
          <path
             class="cls-3"
             d="M363.74,114.17c.26,2.6,.89,4.7,1.88,6.3,.99,1.6,2.12,2.83,3.41,3.69,1.27,.87,2.59,1.45,3.96,1.75,1.36,.3,2.52,.46,3.47,.46,1.08,0,2.14-.13,3.18-.42,1.04-.29,1.96-.7,2.77-1.29,.8-.59,1.43-1.32,1.91-2.21,.48-.89,.71-1.92,.71-3.08,0-1.65-.55-3.09-1.65-4.32-1.11-1.24-2.5-2.38-4.18-3.44-1.7-1.06-3.5-2.1-5.43-3.12-1.92-1.01-3.73-2.14-5.42-3.38-1.68-1.23-3.08-2.62-4.18-4.18-1.1-1.57-1.66-3.43-1.66-5.6,0-1.64,.33-3.15,.97-4.54,.65-1.38,1.55-2.58,2.7-3.59,1.14-1.02,2.46-1.81,3.96-2.37,1.49-.57,3.09-.84,4.76-.84,1.18,0,2.24,.12,3.22,.39,.97,.26,1.85,.54,2.63,.84,.4,.18,.84,.47,1.36,.85,.52,.39,1.1,.75,1.72,1.06,.62,.33,1.29,.54,1.98,.63,.69,.08,1.42-.14,2.2-.65l-.2,11.75h-1.16c-.12-1.7-.49-3.29-1.07-4.81-.59-1.5-1.39-2.83-2.43-3.92-1.04-1.11-2.27-1.98-3.69-2.63-1.44-.65-3.03-.98-4.81-.98-.91,0-1.82,.15-2.73,.49-.9,.32-1.71,.79-2.4,1.39-.68,.61-1.25,1.33-1.68,2.14-.43,.83-.65,1.71-.65,2.67,0,1.51,.6,2.85,1.78,4,1.2,1.14,2.67,2.22,4.42,3.24,1.75,1.02,3.66,2.02,5.74,3.02,2.07,1,3.99,2.1,5.74,3.34,1.75,1.24,3.23,2.63,4.42,4.19,1.19,1.57,1.77,3.4,1.77,5.52,0,1.69-.33,3.27-1,4.76-.67,1.5-1.63,2.82-2.86,3.98-1.22,1.14-2.69,2.03-4.42,2.69-1.7,.65-3.59,.97-5.68,.97-1.52,0-2.81-.13-3.89-.38-1.09-.25-2.06-.54-2.92-.85-.43-.17-.85-.39-1.24-.68-.39-.29-.85-.56-1.39-.83-.54-.25-1.21-.47-2.01-.68-.8-.18-1.82-.28-3.08-.28v-11.04h1.16Z"
             id="path120"
             style="fill:#ffffff;fill-opacity:1" />
          <path
             class="cls-3"
             d="M406.77,104.31h11.95c.94,0,1.74-.07,2.36-.23,.63-.15,1.09-.43,1.39-.84,.31-.41,.46-1.02,.46-1.79h1.17v8.96h-1.17c0-1.04-.14-1.83-.42-2.36-.28-.55-.74-.91-1.36-1.11-.63-.19-1.41-.29-2.37-.29h-12.01v11.49c0,.64,.03,1.4,.09,2.26,.07,.88,.32,1.7,.79,2.47,.45,.78,1.18,1.42,2.2,1.95,1.01,.51,2.45,.78,4.31,.78h4.94c1.42,0,2.63-.16,3.61-.46,.97-.3,1.8-.8,2.5-1.49,.68-.69,1.27-1.55,1.75-2.62,.47-1.06,.92-2.35,1.35-3.86h1.83l-2.28,10.78h-27.2v-34.72c0-1.34-.04-2.46-.09-3.37-.06-.9-.29-1.65-.68-2.21-.4-.56-1-.95-1.82-1.17-.83-.22-1.99-.32-3.51-.32v-1.18h32.97l.59,9.41h-1.3c-.29-1.63-.66-2.92-1.07-3.86-.41-.93-.96-1.62-1.65-2.11-.7-.48-1.55-.78-2.57-.9-1.02-.14-2.28-.2-3.79-.2h-10.97v17Z"
             id="path122"
             style="fill:#ffffff;fill-opacity:1" />
          <path
             class="cls-3"
             d="M440.32,93.21c0-1.34-.03-2.46-.09-3.37-.06-.9-.3-1.65-.68-2.21-.4-.56-1-.95-1.82-1.17-.82-.22-1.99-.32-3.5-.32v-1.18h19.85c3.03,0,5.61,.32,7.74,.94,2.12,.63,3.83,1.49,5.16,2.57,1.32,1.08,2.27,2.32,2.89,3.71,.61,1.37,.91,2.82,.91,4.34,0,2.39-.73,4.39-2.21,6.03-1.46,1.65-3.26,2.78-5.38,3.38v.12c1.26,.18,2.45,.54,3.6,1.08,1.15,.53,2.16,1.22,3.05,2.07,.9,.85,1.61,1.84,2.15,3,.54,1.13,.81,2.39,.81,3.79,0,.94-.18,2.11-.56,3.46-.37,1.37-1.14,2.67-2.31,3.94-1.16,1.25-2.84,2.32-5.04,3.21-2.16,.88-5.06,1.33-8.65,1.33h-15.9v-34.72Zm6.1,31.55c2.25,.56,4.7,.84,7.33,.84,1.39,0,2.78-.17,4.16-.49,1.39-.33,2.64-.84,3.76-1.55,1.12-.7,2.05-1.63,2.76-2.76,.72-1.12,1.07-2.49,1.07-4.08,0-1.9-.41-3.5-1.24-4.76-.82-1.28-1.88-2.3-3.18-3.07-1.3-.75-2.76-1.28-4.38-1.59-1.62-.3-3.24-.44-4.83-.38l-5.52,.19,.06,17.66Zm12.73-20.94c1.38-.63,2.45-1.39,3.21-2.3,.75-.91,1.23-1.86,1.46-2.82,.21-.98,.32-1.79,.32-2.44,0-1.69-.35-3.11-1.06-4.25-.72-1.15-1.66-2.09-2.82-2.83-1.16-.74-2.48-1.26-3.93-1.59-1.44-.32-2.89-.48-4.31-.48-1.16,.04-2.1,.35-2.79,.9-.69,.56-1.33,1.53-1.91,2.89-.59,1.37-.88,3.39-.88,6.07v7.72l7.14,.07c2.34,0,4.2-.33,5.59-.95Z"
             id="path124"
             style="fill:#ffffff;fill-opacity:1" />
          <path
             class="cls-3"
             d="M518.02,114.17c.26,2.6,.89,4.7,1.89,6.3,1,1.6,2.12,2.83,3.4,3.69,1.28,.87,2.59,1.45,3.96,1.75,1.36,.3,2.52,.46,3.48,.46,1.08,0,2.14-.13,3.18-.42,1.04-.29,1.96-.7,2.76-1.29,.8-.59,1.43-1.32,1.91-2.21,.48-.89,.71-1.92,.71-3.08,0-1.65-.54-3.09-1.65-4.32-1.1-1.24-2.51-2.38-4.19-3.44-1.69-1.06-3.5-2.1-5.43-3.12-1.92-1.01-3.73-2.14-5.42-3.38-1.68-1.23-3.08-2.62-4.18-4.18-1.11-1.57-1.66-3.43-1.66-5.6,0-1.64,.32-3.15,.97-4.54,.64-1.38,1.55-2.58,2.7-3.59,1.14-1.02,2.46-1.81,3.95-2.37,1.49-.57,3.08-.84,4.78-.84,1.16,0,2.23,.12,3.22,.39,.97,.26,1.84,.54,2.63,.84,.38,.18,.83,.47,1.36,.85,.52,.39,1.09,.75,1.71,1.06,.63,.33,1.3,.54,1.99,.63,.69,.08,1.42-.14,2.2-.65l-.2,11.75h-1.17c-.13-1.7-.49-3.29-1.08-4.81-.59-1.5-1.39-2.83-2.42-3.92-1.04-1.11-2.28-1.98-3.71-2.63-1.42-.65-3.02-.98-4.8-.98-.9,0-1.81,.15-2.72,.49-.91,.32-1.71,.79-2.4,1.39-.69,.61-1.25,1.33-1.69,2.14-.43,.83-.64,1.71-.64,2.67,0,1.51,.59,2.85,1.77,4,1.2,1.14,2.66,2.22,4.42,3.24,1.75,1.02,3.66,2.02,5.75,3.02,2.07,1,3.98,2.1,5.74,3.34,1.76,1.24,3.22,2.63,4.41,4.19,1.19,1.57,1.78,3.4,1.78,5.52,0,1.69-.33,3.27-1.01,4.76-.68,1.5-1.62,2.82-2.85,3.98-1.24,1.14-2.71,2.03-4.41,2.69-1.71,.65-3.6,.97-5.69,.97-1.51,0-2.81-.13-3.89-.38-1.08-.25-2.05-.54-2.93-.85-.43-.17-.83-.39-1.23-.68-.39-.29-.86-.56-1.39-.83-.54-.25-1.21-.47-2.02-.68-.79-.18-1.82-.28-3.08-.28v-11.04h1.17Z"
             id="path126"
             style="fill:#ffffff;fill-opacity:1" />
          <path
             class="cls-3"
             d="M563.97,87.69h-3.64c-3.55,0-5.99,.52-7.34,1.56-1.21,.92-2.17,3.17-2.91,6.75h-1.55l.39-11.04h36.61l.39,11.04h-1.56c-.78-3.54-1.75-5.79-2.92-6.75-1.17-1.04-3.63-1.56-7.4-1.56h-3.58v40.25h-6.48v-40.25Z"
             id="path128"
             style="fill:#ffffff;fill-opacity:1" />
          <path
             class="cls-3"
             d="M594.28,84.97h6.09v42.97h-6.09v-42.97Z"
             id="path130"
             style="fill:#ffffff;fill-opacity:1" />
          <path
             class="cls-3"
             d="M685.07,84.98h0s-2.79-.01-2.79-.01v32.13h-.12l-.27-.33v-.03l-25.85-31.74h-.01l-.02-.04h-3.18v42.97h2.82v-33.81h.1l28.17,34.54h1.98v-36.38c0-1.18,.03-2.19,.09-2.99,.06-.8,.27-1.47,.61-1.95,.34-.5,.88-.85,1.61-1.04,.73-.2,1.29-.29,2.63-.29v-1.03h-5.76Z"
             id="path132"
             style="fill:#ffffff;fill-opacity:1" />
          <path
             class="cls-3"
             d="M277.83,84h-1.17l-19.34,43.94h10.71v-1.17c-.6-.04-1.2-.1-1.78-.19-.59-.09-1.12-.22-1.59-.42-.48-.2-.88-.46-1.18-.82-.31-.35-.45-.82-.45-1.42s.19-1.34,.55-2.21c.28-.65,.52-1.21,.7-1.68h-.01s.24-.57,.24-.57l2.48-5.93h16.68l5.78,14.42h5.71l-17.33-43.94Zm-9.84,27.2l7.5-17.34,7.33,17.34h-14.83Z"
             id="path134"
             style="fill:#ffffff;fill-opacity:1" />
          <path
             class="cls-3"
             d="M334.98,84.97h0s-2.8,0-2.8,0v32.13h-.12l-.27-.33v-.03l-25.85-31.75h-.01l-.03-.03h-3.19v42.97h2.79v-33.81h.13l28.18,34.54h1.99v-36.38c0-1.18,.03-2.19,.09-2.99,.06-.8,.26-1.47,.61-1.95,.34-.5,.88-.86,1.61-1.04,.73-.2,1.28-.29,2.62-.29v-1.04h-5.75Z"
             id="path136"
             style="fill:#ffffff;fill-opacity:1" />
          <path
             class="cls-3"
             d="M496.72,83.92h-1.17l-19.34,43.93h10.72v-1.16c-.61-.05-1.21-.11-1.78-.2-.58-.08-1.12-.23-1.6-.43-.47-.18-.86-.46-1.16-.8-.31-.36-.45-.83-.45-1.43s.18-1.34,.56-2.21c.27-.67,.49-1.22,.7-1.7h-.02l.24-.55,2.48-5.93h16.68l5.78,14.4h5.7l-17.32-43.93Zm-9.83,27.19l7.49-17.33,7.32,17.33h-14.81Z"
             id="path138"
             style="fill:#ffffff;fill-opacity:1" />
          <path
             class="cls-3"
             d="M227.66,114.17c.26,2.6,.89,4.7,1.89,6.3,.99,1.6,2.13,2.84,3.4,3.69,1.28,.87,2.61,1.45,3.97,1.75,1.37,.3,2.52,.46,3.48,.46,1.08,0,2.14-.13,3.18-.42,1.05-.29,1.96-.7,2.76-1.29,.8-.6,1.43-1.32,1.92-2.21,.47-.89,.71-1.92,.71-3.08,0-1.65-.55-3.09-1.65-4.32-1.1-1.24-2.51-2.38-4.18-3.44-1.69-1.06-3.5-2.1-5.42-3.12-1.92-1.01-3.73-2.14-5.42-3.38-1.69-1.23-3.09-2.62-4.19-4.18-1.1-1.57-1.65-3.43-1.65-5.6,0-1.64,.33-3.15,.97-4.54,.66-1.38,1.55-2.58,2.7-3.59,1.14-1.02,2.46-1.81,3.96-2.37,1.49-.57,3.08-.84,4.76-.84,1.18,0,2.25,.12,3.22,.39,.97,.26,1.85,.54,2.62,.84,.39,.18,.85,.46,1.37,.85,.52,.39,1.09,.75,1.72,1.06,.62,.33,1.28,.54,1.98,.62,.69,.09,1.42-.13,2.2-.65l-.19,11.75h-1.17c-.13-1.7-.49-3.29-1.07-4.81-.59-1.52-1.41-2.83-2.44-3.92-1.03-1.11-2.28-1.98-3.7-2.63-1.42-.65-3.02-.98-4.8-.98-.9,0-1.82,.15-2.73,.49-.91,.32-1.71,.79-2.4,1.39-.7,.61-1.26,1.33-1.69,2.14-.43,.83-.65,1.71-.65,2.67,0,1.51,.59,2.85,1.78,4,1.2,1.14,2.67,2.22,4.42,3.24,1.75,1.02,3.67,2.02,5.74,3.02,2.08,1,3.99,2.1,5.74,3.34,1.75,1.24,3.23,2.63,4.42,4.19,1.19,1.57,1.78,3.4,1.78,5.52,0,1.7-.32,3.27-.99,4.77-.68,1.49-1.63,2.81-2.87,3.96-1.23,1.14-2.7,2.03-4.41,2.69-1.71,.65-3.6,.97-5.67,.97-1.53,0-2.83-.12-3.9-.38-1.09-.25-2.06-.54-2.92-.85-.44-.17-.85-.39-1.23-.68-.39-.29-.85-.56-1.39-.83-.54-.25-1.22-.47-2.01-.68-.81-.18-1.82-.28-3.09-.28v-11.04h1.17Z"
             id="path140"
             style="fill:#ffffff;fill-opacity:1" />
          <path
             class="cls-3"
             d="M634.41,113.43h-16.7l-2.53,6.04c-.22,.56-.51,1.28-.88,2.14-.37,.87-.55,1.6-.55,2.21s.15,1.08,.45,1.43c.3,.35,.69,.62,1.17,.81,.48,.19,1.01,.34,1.59,.42,.58,.09,1.18,.15,1.79,.19v1.17h-10.72l19.36-43.99h1.17l17.35,43.99h-5.72l-5.78-14.43Zm-8.19-19.69l-7.47,17.35h14.82l-7.34-17.35Z"
             id="path142"
             style="fill:#ffffff;fill-opacity:1" />
        </g>
        <g
           id="g196"
           style="fill:#ffffff;fill-opacity:1">
          <g
             id="g192"
             style="fill:#ffffff;fill-opacity:1">
            <path
               class="cls-3"
               d="M239.14,167.35l-5.66-13.63h-5.18v1.54l.5,.04c.33,.03,.61,.11,.83,.25,.24,.15,.45,.34,.62,.55,.19,.24,.36,.51,.5,.81,.16,.33,.31,.66,.46,1.01l6.62,15.55h1.22l8.05-19.75h-2.5l-5.46,13.63Z"
               id="path146"
               style="fill:#ffffff;fill-opacity:1" />
            <path
               class="cls-3"
               d="M266.23,156.19c-.84-.89-1.85-1.59-2.99-2.08-2.3-.98-5.1-.98-7.39,0-1.14,.49-2.15,1.19-3,2.08-.84,.89-1.51,1.95-1.99,3.16-.49,1.21-.74,2.56-.74,4s.25,2.79,.74,4c.49,1.21,1.16,2.27,1.99,3.16,.84,.89,1.85,1.59,3,2.08,1.15,.49,2.39,.74,3.7,.74s2.55-.25,3.7-.74c1.14-.49,2.15-1.19,2.99-2.08,.84-.88,1.51-1.94,2-3.16,.49-1.21,.73-2.56,.73-4s-.25-2.79-.73-4c-.49-1.21-1.16-2.27-2-3.16Zm-10.89,13.09c-.54-.67-.97-1.51-1.28-2.49-.31-.99-.47-2.15-.47-3.44s.16-2.44,.47-3.44c.31-.98,.74-1.82,1.28-2.49,.53-.66,1.16-1.16,1.88-1.5,.72-.34,1.5-.51,2.32-.51s1.6,.17,2.32,.51c.72,.34,1.35,.84,1.88,1.5,.54,.67,.97,1.5,1.28,2.49,.31,1,.47,2.16,.47,3.44s-.16,2.44-.47,3.44c-.31,.99-.74,1.83-1.28,2.49-.53,.66-1.16,1.16-1.88,1.5-1.43,.68-3.21,.68-4.64,0-.72-.34-1.35-.84-1.88-1.5Z"
               id="path148"
               style="fill:#ffffff;fill-opacity:1" />
            <path
               class="cls-3"
               d="M301.36,153.31l-8.69,19.75h5.93v-1.55l-.51-.03c-.25-.02-.48-.04-.72-.08-.2-.03-.39-.08-.55-.14-.12-.05-.22-.12-.29-.2-.05-.06-.06-.18-.06-.25,0-.13,.03-.35,.19-.72,.16-.38,.29-.69,.37-.91l.94-2.23h6.35l2.45,6.12h3.59l-7.79-19.75h-1.22Zm-2.48,11.55l2.34-5.43,2.3,5.43h-4.63Z"
               id="path150"
               style="fill:#ffffff;fill-opacity:1" />
            <rect
               class="cls-3"
               x="334.08"
               y="153.72"
               width="3.68"
               height="19.33"
               id="rect152"
               style="fill:#ffffff;fill-opacity:1" />
            <path
               class="cls-3"
               d="M356.89,156.19c-.84-.89-1.85-1.59-2.99-2.08-2.3-.98-5.1-.98-7.39,0-1.14,.49-2.15,1.19-3,2.08-.84,.89-1.51,1.95-1.99,3.16-.49,1.21-.73,2.55-.73,4s.25,2.79,.73,4c.49,1.21,1.16,2.27,1.99,3.16,.84,.89,1.85,1.59,3,2.08,1.15,.49,2.39,.74,3.7,.74s2.55-.25,3.7-.74c1.14-.49,2.15-1.19,2.99-2.08,.84-.88,1.51-1.94,2-3.16,.49-1.21,.73-2.56,.73-4s-.25-2.79-.73-4c-.49-1.21-1.16-2.27-2-3.16Zm-10.89,13.09c-.54-.67-.97-1.51-1.28-2.49-.31-.99-.47-2.15-.47-3.44s.16-2.44,.47-3.44c.31-.98,.74-1.82,1.28-2.49,.53-.66,1.16-1.16,1.88-1.5,.72-.34,1.5-.51,2.32-.51s1.6,.17,2.32,.51c.72,.34,1.35,.84,1.88,1.5,.54,.67,.97,1.5,1.28,2.49,.31,1,.47,2.15,.47,3.44s-.16,2.44-.47,3.44c-.31,.99-.74,1.83-1.28,2.49-.53,.66-1.16,1.16-1.88,1.5-1.44,.68-3.21,.68-4.64,0-.71-.34-1.35-.84-1.88-1.5Z"
               id="path154"
               style="fill:#ffffff;fill-opacity:1" />
            <path
               class="cls-3"
               d="M407.84,155.38c-.59-.52-1.33-.93-2.21-1.22-.87-.29-1.88-.44-3-.44h-7.99v1.58h.55c.6,0,1.05,.04,1.35,.12,.22,.06,.37,.15,.46,.28,.11,.16,.17,.38,.2,.66,.03,.38,.04,.84,.04,1.4v15.29h3.68v-8.78c.19,.12,.4,.22,.64,.31,.31,.11,.64,.19,.98,.26,.35,.06,.65,.09,.89,.09,1.3,0,2.37-.22,3.19-.64,.82-.43,1.46-.95,1.91-1.55,.45-.6,.75-1.22,.9-1.85,.15-.6,.22-1.11,.22-1.52,0-.76-.16-1.48-.46-2.16-.31-.69-.76-1.3-1.35-1.81Zm-6.93,2.38c0-.66,.09-1.01,.16-1.19,.1-.24,.21-.41,.32-.5,.11-.08,.22-.13,.32-.14,.83-.07,1.36,.01,1.87,.25,.39,.18,.73,.44,1,.76,.28,.33,.49,.7,.65,1.14,.15,.44,.23,.91,.23,1.42,0,.45-.06,.88-.18,1.29-.12,.42-.29,.79-.51,1.12-.21,.31-.45,.55-.75,.73-.58,.35-1.32,.26-1.99,.24-.28,0-.66-.1-1.11-.28h-.01v-4.84Z"
               id="path156"
               style="fill:#ffffff;fill-opacity:1" />
            <path
               class="cls-3"
               d="M429.23,156.19c-.84-.89-1.85-1.59-2.99-2.08-2.3-.98-5.1-.98-7.39,0-1.14,.49-2.15,1.19-3,2.08-.84,.89-1.51,1.95-1.99,3.16-.49,1.21-.73,2.55-.73,4s.25,2.79,.73,4c.49,1.21,1.16,2.27,1.99,3.16,.84,.89,1.85,1.59,3,2.08,1.15,.49,2.39,.74,3.7,.74s2.55-.25,3.7-.74c1.14-.49,2.15-1.19,2.99-2.08,.84-.88,1.51-1.94,2-3.16,.49-1.21,.73-2.56,.73-4s-.25-2.79-.73-4c-.49-1.21-1.16-2.27-2-3.16Zm-10.89,13.09c-.54-.67-.97-1.51-1.28-2.49-.31-.99-.47-2.15-.47-3.44s.16-2.44,.47-3.44c.31-.98,.74-1.82,1.28-2.49,.53-.66,1.16-1.16,1.88-1.5,.72-.34,1.5-.51,2.32-.51s1.6,.17,2.32,.51c.72,.34,1.35,.84,1.88,1.5,.54,.67,.97,1.5,1.28,2.49,.31,1,.47,2.15,.47,3.44s-.16,2.44-.47,3.44c-.31,.99-.74,1.83-1.28,2.49-.53,.66-1.16,1.16-1.88,1.5-1.44,.68-3.21,.68-4.64,0-.72-.34-1.35-.84-1.88-1.5Z"
               id="path158"
               style="fill:#ffffff;fill-opacity:1" />
            <path
               class="cls-3"
               d="M450.46,171.15c-.41-.16-.78-.37-1.1-.64-.33-.27-.65-.58-.93-.95-.31-.39-.62-.81-.95-1.29l-3.09-4.32c.36-.11,.71-.24,1.05-.4,.59-.27,1.12-.62,1.58-1.05,.46-.43,.83-.94,1.11-1.51,.28-.58,.43-1.26,.43-2,0-.46-.09-.97-.26-1.57-.18-.62-.53-1.22-1.05-1.78-.51-.55-1.23-1.02-2.12-1.39-.89-.37-2.05-.55-3.46-.55h-8.46v1.58h.55c.6,0,1.05,.04,1.35,.12,.22,.06,.37,.15,.46,.28,.11,.16,.17,.38,.19,.67,.03,.38,.04,.84,.04,1.39v15.29h3.68v-10.15l7.25,10.15h5.7v-1.54l-.5-.04c-.57-.05-1.06-.16-1.47-.32Zm-10.99-8.56v-4.83c0-.54,.07-.95,.2-1.23,.12-.25,.25-.43,.39-.52,.16-.1,.32-.16,.5-.18,.85-.1,1.39-.02,1.93,.21,.39,.16,.72,.4,1,.69,.28,.29,.49,.64,.64,1.04,.15,.4,.23,.86,.23,1.34,0,.68-.11,1.24-.34,1.68-.23,.44-.52,.79-.87,1.05-.36,.27-.79,.46-1.27,.57-.52,.12-1.05,.18-1.58,.18h-.83Z"
               id="path160"
               style="fill:#ffffff;fill-opacity:1" />
            <path
               class="cls-3"
               d="M479.57,167.79c-.17,.6-.35,1.12-.55,1.56-.17,.39-.39,.71-.63,.95-.24,.23-.51,.4-.84,.5-.36,.11-.82,.17-1.37,.17h-2.09c-.7,0-1.23-.09-1.59-.27-.34-.17-.58-.38-.72-.62-.15-.26-.24-.53-.26-.81-.03-.35-.04-.66-.04-.92v-14.63h-6.27v1.58h.55c.6,0,1.05,.04,1.35,.12,.22,.06,.37,.15,.46,.28,.11,.16,.17,.38,.2,.66,.03,.38,.04,.84,.04,1.4v15.29h12.54l1.19-5.66h-1.86l-.11,.4Z"
               id="path162"
               style="fill:#ffffff;fill-opacity:1" />
            <path
               class="cls-3"
               d="M491.65,153.31l-8.69,19.75h5.93v-1.55l-.51-.03c-.24-.02-.48-.04-.71-.08-.2-.03-.39-.08-.55-.14-.13-.05-.22-.12-.3-.2-.05-.06-.06-.18-.06-.25,0-.13,.03-.35,.19-.72,.16-.38,.29-.69,.37-.91l.94-2.23h6.35l2.45,6.12h3.59l-7.79-19.75h-1.22Zm-2.48,11.55l2.34-5.43,2.3,5.43h-4.63Z"
               id="path164"
               style="fill:#ffffff;fill-opacity:1" />
            <path
               class="cls-3"
               d="M526.3,167.79c-.17,.6-.35,1.12-.55,1.56-.17,.39-.39,.71-.63,.95-.24,.23-.51,.4-.84,.5-.36,.11-.82,.17-1.37,.17h-2.09c-.7,0-1.23-.09-1.59-.27-.34-.17-.58-.38-.72-.62-.15-.26-.24-.53-.26-.81-.03-.35-.04-.66-.04-.92v-4.34h4.55c.35,0,.63,.03,.84,.1,.16,.05,.22,.14,.26,.2,.04,.08,.12,.29,.12,.75v.54h1.58v-4.89h-1.58v.54c0,.29-.06,.4-.09,.43-.05,.07-.15,.12-.28,.15-.23,.05-.52,.08-.88,.08h-4.53v-6.13h4.11c.62,0,1.14,.03,1.54,.08,.34,.04,.63,.14,.85,.29,.21,.15,.38,.37,.51,.67,.16,.36,.3,.87,.42,1.52l.08,.44h1.58l-.32-5.08h-15.06v1.58h.55c.6,0,1.05,.04,1.35,.12,.22,.06,.37,.15,.46,.28,.11,.16,.17,.38,.2,.66,.03,.38,.04,.84,.04,1.4v15.29h12.54l1.19-5.66h-1.86l-.11,.4Z"
               id="path166"
               style="fill:#ffffff;fill-opacity:1" />
            <path
               class="cls-3"
               d="M549.96,171.38c-.19-.03-.4-.12-.64-.25-.24-.13-.5-.33-.78-.61-.28-.28-.61-.7-.98-1.24l-4.55-6.84,3.13-4.08c.27-.36,.56-.73,.87-1.11,.3-.36,.61-.7,.95-1,.32-.28,.67-.52,1.05-.7,.36-.17,.76-.25,1.19-.25h.55v-1.58h-4.04l-5.07,6.76-4.31-6.76h-5.56v1.51l1.21,.18c.19,.03,.4,.1,.63,.23,.24,.13,.5,.34,.78,.61,.29,.29,.62,.71,.98,1.24l4,6.01-3.83,4.87c-.31,.38-.62,.75-.95,1.11-.31,.34-.65,.67-1.01,.96-.35,.28-.72,.52-1.12,.7-.39,.18-.81,.29-1.26,.34l-.49,.05v1.53h3.67l6.2-7.64,5.04,7.64h5.55v-1.55l-.51-.03c-.24-.02-.47-.05-.7-.09Z"
               id="path168"
               style="fill:#ffffff;fill-opacity:1" />
            <path
               class="cls-3"
               d="M569.09,155.04c-.2-.01-.4-.06-.58-.14-.2-.09-.37-.17-.5-.27l-.41-.28c-.66-.32-1.33-.58-1.98-.75-.66-.18-1.38-.26-2.14-.26-1.47,0-2.83,.28-4.04,.83-1.21,.55-2.26,1.31-3.12,2.25-.86,.94-1.54,2.05-2.01,3.32-.47,1.26-.71,2.61-.71,4.01s.23,2.63,.69,3.81c.45,1.18,1.1,2.22,1.92,3.1,.82,.88,1.82,1.58,2.96,2.07,1.15,.5,2.43,.75,3.83,.75,1.9,0,3.51-.43,4.79-1.28,1.26-.83,2.35-2.08,3.24-3.69l.24-.44-1.27-.85-.31,.44c-.41,.59-.82,1.12-1.21,1.57-.37,.43-.78,.79-1.21,1.09-.43,.29-.9,.51-1.42,.66-1.07,.31-2.59,.33-4.04-.13-.73-.23-1.39-.63-1.98-1.2-.59-.57-1.09-1.34-1.47-2.29-.38-.96-.58-2.18-.58-3.63s.15-2.73,.46-3.79c.3-1.05,.71-1.92,1.23-2.6,.5-.66,1.11-1.16,1.81-1.48,1.36-.63,3.14-.62,4.4-.14,.6,.23,1.13,.56,1.58,.97,.45,.42,.83,.92,1.14,1.51,.32,.61,.59,1.29,.8,2.02l.11,.39h1.4l-.36-5.5"
               id="path170"
               style="fill:#ffffff;fill-opacity:1" />
            <path
               class="cls-3"
               d="M588.03,167.79c-.17,.61-.36,1.14-.55,1.57-.17,.39-.39,.71-.63,.96-.23,.23-.51,.4-.84,.5-.36,.11-.82,.17-1.37,.17h-2.1c-.7,0-1.23-.09-1.59-.27-.34-.17-.57-.38-.71-.62-.15-.26-.24-.53-.26-.81-.03-.35-.04-.66-.04-.92v-4.34h4.55c.35,0,.63,.03,.84,.1,.16,.05,.22,.13,.26,.2,.04,.08,.12,.29,.12,.75v.54h1.59v-4.89h-1.59v.54c0,.29-.06,.4-.09,.43-.05,.07-.15,.12-.28,.15-.23,.05-.52,.08-.88,.08h-4.53v-6.13h4.11c.62,0,1.14,.03,1.54,.08,.34,.04,.63,.14,.85,.29,.21,.15,.38,.37,.51,.67,.16,.35,.3,.86,.42,1.52l.08,.44h1.58l-.32-5.08h-15.06v1.58h.55c.6,0,1.05,.04,1.35,.12,.22,.06,.37,.15,.46,.28,.11,.15,.17,.38,.19,.66,.03,.38,.04,.84,.04,1.4v15.29h12.54l1.19-5.66h-1.85l-.11,.39Z"
               id="path172"
               style="fill:#ffffff;fill-opacity:1" />
            <path
               class="cls-3"
               d="M606.77,167.79c-.17,.61-.36,1.14-.55,1.57-.17,.39-.39,.71-.63,.95-.24,.23-.51,.4-.84,.5-.36,.11-.82,.17-1.37,.17h-2.09c-.7,0-1.23-.09-1.59-.27-.34-.17-.58-.38-.72-.62-.15-.26-.24-.53-.26-.81-.03-.35-.04-.66-.04-.92v-14.63h-6.27v1.58h.55c.6,0,1.05,.04,1.35,.12,.22,.06,.37,.15,.46,.28,.11,.16,.17,.38,.2,.66,.03,.38,.04,.84,.04,1.4v15.29h12.54l1.19-5.66h-1.85l-.11,.39Z"
               id="path174"
               style="fill:#ffffff;fill-opacity:1" />
            <path
               class="cls-3"
               d="M625.52,167.79c-.17,.61-.36,1.14-.55,1.57-.17,.39-.39,.71-.63,.95-.24,.23-.51,.4-.84,.5-.36,.11-.82,.17-1.37,.17h-2.1c-.7,0-1.23-.09-1.59-.27-.34-.17-.57-.38-.71-.62-.15-.26-.24-.53-.26-.82-.03-.35-.04-.66-.04-.92v-4.34h4.56c.35,0,.63,.03,.84,.1,.16,.05,.22,.14,.26,.2,.04,.09,.12,.3,.12,.76v.54h1.59v-4.89h-1.59v.54c0,.29-.06,.4-.09,.44-.05,.07-.14,.12-.28,.15-.22,.05-.52,.08-.88,.08h-4.53v-6.13h4.11c.62,0,1.14,.03,1.54,.08,.34,.04,.63,.14,.85,.29,.21,.15,.38,.37,.51,.67,.16,.36,.3,.87,.42,1.52l.08,.45h1.58l-.32-5.08h-15.06v1.58h.55c.6,0,1.05,.04,1.35,.12,.22,.06,.37,.15,.46,.28,.11,.15,.17,.38,.19,.66,.03,.38,.04,.84,.04,1.39v15.29h12.54l1.19-5.66h-1.85l-.11,.39Z"
               id="path176"
               style="fill:#ffffff;fill-opacity:1" />
            <rect
               class="cls-3"
               x="669.45"
               y="153.72"
               width="3.68"
               height="19.33"
               id="rect178"
               style="fill:#ffffff;fill-opacity:1" />
            <path
               class="cls-3"
               d="M685.47,153.31h-1.22l-8.69,19.75h5.93v-1.55l-.51-.03c-.24-.02-.48-.04-.71-.08-.2-.03-.39-.08-.55-.14-.13-.05-.22-.12-.3-.2-.05-.06-.06-.18-.06-.25,0-.13,.03-.35,.19-.72,.16-.38,.29-.69,.37-.91l.94-2.23h6.35l2.45,6.12h3.59l-7.79-19.75Zm-3.7,11.55l2.34-5.43,2.3,5.43h-4.63Z"
               id="path180"
               style="fill:#ffffff;fill-opacity:1" />
            <path
               class="cls-3"
               d="M377.54,155.66c.02-.36,.12-.33,.27-.55,.15-.22,.39-.38,.71-.47,.32-.09,.56-.13,1.15-.13v-.8h-2.53s-1.88-.04-1.88-.04v12.73l-10.36-12.68h-.02s-2.24-.01-2.24-.01v19.31h2.37l.03-9.39-.03-4.06,11.31,13.78h1.2"
               id="path182"
               style="fill:#ffffff;fill-opacity:1" />
            <path
               class="cls-3"
               d="M664.87,155.04c-.2-.01-.4-.06-.58-.14-.2-.09-.37-.17-.5-.27l-.41-.28c-.66-.32-1.33-.58-1.98-.75-.66-.18-1.38-.26-2.14-.26-1.47,0-2.83,.28-4.04,.83-1.21,.55-2.26,1.31-3.12,2.25-.86,.94-1.54,2.05-2.01,3.32-.47,1.26-.71,2.61-.71,4.01s.23,2.63,.69,3.81c.45,1.18,1.1,2.22,1.92,3.1,.82,.88,1.82,1.58,2.96,2.07,1.15,.5,2.43,.75,3.83,.75,1.9,0,3.51-.43,4.79-1.28,1.26-.83,2.35-2.08,3.24-3.69l.24-.44-1.27-.85-.31,.44c-.41,.59-.82,1.12-1.21,1.57-.37,.43-.78,.79-1.21,1.09-.43,.29-.9,.51-1.42,.66-1.07,.31-2.59,.33-4.04-.13-.73-.23-1.39-.63-1.98-1.2-.59-.57-1.09-1.34-1.47-2.29-.38-.96-.58-2.18-.58-3.63s.15-2.73,.46-3.79c.3-1.05,.71-1.92,1.23-2.6,.5-.66,1.11-1.16,1.81-1.48,1.36-.63,3.14-.62,4.4-.14,.6,.23,1.13,.56,1.58,.97,.45,.42,.83,.92,1.14,1.51,.32,.61,.59,1.29,.8,2.02l.11,.39h1.4l-.36-5.5"
               id="path184"
               style="fill:#ffffff;fill-opacity:1" />
            <path
               class="cls-3"
               d="M287.49,155.1c-.2-.01-.4-.06-.58-.14-.2-.09-.37-.17-.5-.27l-.41-.28c-.66-.32-1.33-.58-1.98-.75-.66-.18-1.38-.26-2.14-.26-1.47,0-2.83,.28-4.04,.83-1.21,.55-2.26,1.31-3.12,2.25-.86,.94-1.54,2.05-2.01,3.32-.47,1.26-.71,2.61-.71,4.01s.23,2.63,.69,3.81c.45,1.18,1.1,2.22,1.92,3.1,.82,.88,1.82,1.58,2.96,2.07,1.15,.5,2.43,.75,3.83,.75,1.9,0,3.51-.43,4.79-1.28,1.26-.83,2.35-2.08,3.24-3.69l.24-.44-1.27-.85-.31,.44c-.41,.59-.82,1.12-1.21,1.57-.37,.43-.78,.79-1.21,1.09-.43,.29-.9,.51-1.42,.66-1.07,.31-2.59,.33-4.04-.13-.73-.23-1.39-.63-1.98-1.2-.59-.57-1.09-1.34-1.47-2.29-.38-.96-.58-2.18-.58-3.63s.15-2.73,.46-3.79c.3-1.05,.71-1.92,1.23-2.6,.5-.66,1.11-1.16,1.81-1.48,1.36-.63,3.14-.62,4.4-.14,.6,.23,1.13,.56,1.58,.97,.45,.42,.83,.92,1.14,1.51,.32,.61,.59,1.29,.8,2.02l.11,.39h1.4l-.36-5.5"
               id="path186"
               style="fill:#ffffff;fill-opacity:1" />
            <path
               class="cls-3"
               d="M328.9,155.1c-.2-.01-.4-.06-.58-.14-.2-.09-.37-.17-.5-.27l-.41-.28c-.66-.32-1.33-.58-1.98-.75-.66-.18-1.38-.26-2.14-.26-1.47,0-2.83,.28-4.04,.83-1.21,.55-2.26,1.31-3.12,2.25-.86,.94-1.54,2.05-2.01,3.32-.47,1.26-.71,2.61-.71,4.01s.23,2.63,.69,3.81c.45,1.18,1.1,2.22,1.92,3.1,.82,.88,1.82,1.58,2.96,2.07,1.15,.5,2.43,.75,3.83,.75,1.9,0,3.51-.43,4.79-1.28,1.26-.83,2.35-2.08,3.24-3.69l.24-.44-1.27-.85-.31,.44c-.41,.59-.82,1.12-1.21,1.57-.37,.43-.78,.79-1.21,1.09-.43,.29-.9,.51-1.42,.66-1.07,.31-2.59,.33-4.04-.13-.73-.23-1.39-.63-1.98-1.2-.59-.57-1.09-1.34-1.47-2.29-.38-.96-.58-2.18-.58-3.63s.15-2.73,.46-3.79c.3-1.05,.71-1.92,1.23-2.6,.5-.66,1.11-1.16,1.81-1.48,1.36-.63,3.14-.62,4.4-.14,.6,.23,1.13,.56,1.58,.97,.45,.42,.83,.92,1.14,1.51,.32,.61,.59,1.29,.8,2.02l.11,.39h1.4l-.36-5.5"
               id="path188"
               style="fill:#ffffff;fill-opacity:1" />
            <path
               class="cls-3"
               d="M644.8,156.07c.02-.36,.12-.33,.27-.55,.15-.22,.39-.38,.71-.47,.32-.09,.56-.13,1.15-.13v-.8h-2.53s-1.88-.04-1.88-.04v12.73l-10.36-12.68h-.02s-2.24-.01-2.24-.01v19.31h2.37l.03-9.39-.03-4.06,11.31,13.78h1.2"
               id="path190"
               style="fill:#ffffff;fill-opacity:1" />
          </g>
          <path
             class="cls-3"
             d="M355.68,149.61c.65-.46,.78-.99,.78-1.36,0-.45-.19-.85-.54-1.17-.34-.3-.76-.45-1.22-.42-.51,.05-.94,.32-1.27,.8l-2.68,4.18,.96,.87,3.97-2.9Z"
             id="path194"
             style="fill:#ffffff;fill-opacity:1" />
        </g>
      </g>
    </g>
  </g>
</svg>
